<svg id="Layer_1" data-name="Layer 1" xmlns="http://www.w3.org/2000/svg" viewBox="0 0 128 128"><defs><style>.cls-1{stroke:#ff0;stroke-miterlimit:10;}.cls-2{fill:#00c0f4;}.cls-3{fill:red;}</style></defs><circle class="cls-1" cx="63.67" cy="64.43" r="61.57"/><path class="cls-2" d="M25.5,63.06c0-23.68,20.42-42.87,45.61-42.87a47.68,47.68,0,0,1,21.31,5,50.4,50.4,0,0,0-26.74-7.58C39,17.58,17.29,37.94,17.29,63.06S39,108.53,65.68,108.53A50.31,50.31,0,0,0,92.42,101a47.68,47.68,0,0,1-21.31,5C45.92,105.92,25.5,86.73,25.5,63.06Z"/><path class="cls-3" d="M69,37.49,92.28,79a3.38,3.38,0,0,1-3.16,5l-13.39-.84a3.62,3.62,0,0,1-2.91-1.82L56,51.58a3.6,3.6,0,0,1,.15-3.79l7.11-10.54A3.39,3.39,0,0,1,69,37.49Z"/><path class="cls-3" d="M48.93,60.18,39.86,75.89a4.6,4.6,0,0,0,4,6.9H62a4.6,4.6,0,0,0,4-6.9L56.9,60.18A4.6,4.6,0,0,0,48.93,60.18Z"/></svg>