<svg id="Layer_1" data-name="Layer 1" xmlns="http://www.w3.org/2000/svg" viewBox="0 0 128 128"><defs><style>.cls-1{stroke:#ff0;stroke-miterlimit:10;}.cls-2{fill:#00c0f4;}.cls-3{fill:#fff515;}</style></defs><circle class="cls-1" cx="64" cy="64.5" r="61.5"/><path class="cls-2" d="M25.87,63.12c0-23.64,20.4-42.81,45.56-42.81a47.62,47.62,0,0,1,21.29,5A50.29,50.29,0,0,0,66,17.7C39.31,17.7,17.67,38,17.67,63.12S39.31,108.55,66,108.55A50.29,50.29,0,0,0,92.72,101a47.75,47.75,0,0,1-21.29,5C46.27,105.94,25.87,86.77,25.87,63.12Z"/><path class="cls-2" d="M55,40.58l-1.35.36a3.23,3.23,0,0,1-.69.13A1.47,1.47,0,0,1,52.4,41a1.41,1.41,0,0,1-.61-.45,2.45,2.45,0,0,1-.42-.79,2,2,0,0,1,0-1.55,1.92,1.92,0,0,1,1.27-.89l1.43-.38.18.74c-.46.11-.93.24-1.39.37a1.35,1.35,0,0,0-.38.17.69.69,0,0,0-.2.28,1.66,1.66,0,0,0,.08,1,1.23,1.23,0,0,0,.42.72.82.82,0,0,0,.7,0l1.33-.36Z"/><path class="cls-2" d="M58.63,39.82l-.89.16c-.1-.5-.19-1-.29-1.51-.44.08-.87.17-1.31.27l.33,1.5-.89.2c-.29-1.23-.59-2.46-.88-3.7l1-.21L56,38c.45-.1.89-.19,1.34-.27-.1-.49-.19-1-.28-1.47l1-.17C58.2,37.32,58.42,38.57,58.63,39.82Z"/><path class="cls-2" d="M63,39.28l-1,.08-.43-.83c-.51,0-1,.12-1.52.19l-.21.91q-.48.06-1,.15c.32-1.34.69-2.68,1.1-4l1-.12C61.69,36.85,62.37,38.05,63,39.28Zm-1.84-1.5c-.2-.36-.4-.73-.61-1.09-.11.4-.21.8-.31,1.21Z"/><path class="cls-2" d="M67.54,39.15h-.89l.06-2.5c-.29.83-.57,1.67-.83,2.5l-.91,0c-.32-.84-.65-1.66-1-2.49.07.84.13,1.68.2,2.52l-.92.06L63,35.47c.45,0,.9-.06,1.35-.08.36.87.71,1.75,1,2.63.28-.9.58-1.79.89-2.68.45,0,.9,0,1.35,0Z"/><path class="cls-2" d="M72,36.88a1.28,1.28,0,0,1-.18.58,1,1,0,0,1-.38.37A1.24,1.24,0,0,1,71,38h-.32a3.39,3.39,0,0,1-.43,0l-.9,0-.07,1.28-.9,0c0-1.27.09-2.54.13-3.8.63,0,1.26.05,1.88.1a4.74,4.74,0,0,1,.74.1l.26.09.19.1a1.28,1.28,0,0,1,.38.49A1.2,1.2,0,0,1,72,36.88Zm-1-.1a.38.38,0,0,0-.12-.37,1,1,0,0,0-.55-.15l-.89-.06,0,.94.92.06h.3a.49.49,0,0,0,.21-.08A.39.39,0,0,0,71,36.78Z"/><path class="cls-2" d="M73.23,39.59l-.94-.12.45-3.77,1,.13C73.58,37.08,73.4,38.34,73.23,39.59Z"/><path class="cls-2" d="M78,38.55a2.1,2.1,0,0,1-.8,1.34,2.52,2.52,0,0,1-2.86-.55,2.13,2.13,0,0,1-.23-1.58,1.88,1.88,0,0,1,.71-1.36,2.12,2.12,0,0,1,1.61-.2,2.15,2.15,0,0,1,1.42.79A2,2,0,0,1,78,38.55Zm-1-.23a1.47,1.47,0,0,0,0-1,.91.91,0,0,0-.68-.43,1,1,0,0,0-.79.14,1,1,0,0,0-.24.34,1.54,1.54,0,0,0-.15.51,1.49,1.49,0,0,0,.07,1,.84.84,0,0,0,.65.42.88.88,0,0,0,.76-.15A1.5,1.5,0,0,0,77,38.32Z"/><path class="cls-2" d="M81.36,41.47l-1-.31c-.23-1-.49-1.94-.77-2.91-.21.84-.43,1.68-.64,2.51l-.9-.23c.31-1.23.61-2.46.92-3.69l1.14.3q.4,1.38.75,2.76c.22-.78.45-1.57.68-2.35l1,.3Z"/><path class="cls-3" d="M93.87,44.23l0-3.33a5.4,5.4,0,0,0-2.12-4.42,17.29,17.29,0,0,0-3.47-2.11,42.94,42.94,0,0,0-7.55-2.69,55.17,55.17,0,0,0-8.45-1.58c-1.79-.18-3.57-.29-5.37-.3-1.62,0-3.24.09-4.86.24-1.43.13-2.85.33-4.26.57s-2.57.52-3.84.84-2.59.69-3.87,1.12a36.09,36.09,0,0,0-4.47,1.82A13.9,13.9,0,0,0,41.66,37a5,5,0,0,0-1.52,3.59c0,1,0,2,0,3,0,1.45,0,2.91-.07,4.37,0,1.85,0,3.7,0,5.56,0,3,0,6.08.06,9.12,0,2.11,0,4.22,0,6.33a26.62,26.62,0,0,0,1,7.48,23.22,23.22,0,0,0,4.5,8.71A27.83,27.83,0,0,0,50.86,90a63.67,63.67,0,0,0,6,3.71c1.81,1,3.64,2,5.45,3,1.51.84,3,1.71,4.46,2.64a.32.32,0,0,0,.42,0c.25-.18.5-.34.76-.5l2.29-1.33c1.51-.91,3.06-1.74,4.61-2.58,2.16-1.17,4.31-2.36,6.37-3.68A35.87,35.87,0,0,0,86,87.67a24.3,24.3,0,0,0,2.78-3,22.35,22.35,0,0,0,4-8.13,25.34,25.34,0,0,0,1-5.78c0-2.69.07-5.39.07-8.08C93.9,56.56,94,50.39,93.87,44.23ZM61,93m-7.73-4.47A41,41,0,0,1,48.91,85,20,20,0,0,1,47,82.81a10.43,10.43,0,0,1-.89-1.28L46,81.28c.13,0,.16.1.2.18a31.7,31.7,0,0,0,5.65,4.75c2.23,1.5,4.57,2.79,6.92,4.08,2.52,1.4,5.06,2.75,7.51,4.27.73.46.73.45,1.46,0,2-1.25,4-2.36,6-3.48,2.58-1.42,5.2-2.78,7.66-4.42A31.59,31.59,0,0,0,85.3,83.8a22.66,22.66,0,0,0,2.49-2.41h0A.32.32,0,0,1,88,81.2a.3.3,0,0,1-.11.26A26.89,26.89,0,0,1,85.91,84a29.25,29.25,0,0,1-3.57,3.29,26.52,26.52,0,0,1-2.29,1.58C78.3,90,76.47,91,74.67,92.05c-.58.33-1.17.66-1.76,1s-1,.55-1.45.8-.8.45-1.2.66-.73.44-1.09.64a8.53,8.53,0,0,0-1.41.8,1,1,0,0,1-1.56,0Zm4.62-39.35A15.29,15.29,0,0,0,56.6,47.2a.26.26,0,0,1,0-.41c.22-.21.42-.43.66-.62s.58-.29.81.15a8.22,8.22,0,0,1,.75,2.08,5.06,5.06,0,0,1-.12,2.37A10,10,0,0,0,57.87,49.13ZM91.28,64.34a26.22,26.22,0,0,1-1,7.26,25.48,25.48,0,0,1-2.31,5.27,21,21,0,0,1-5.86,6.26c-1.18.91-2.47,1.67-3.73,2.47-.22.14-.28.06-.26-.16a1.35,1.35,0,0,0-.18-.77c-.38-.7-.67-1.44-1-2.15a19.65,19.65,0,0,0-1.22-1.89.35.35,0,0,0-.11-.13c-.58-.29-1.06-.75-1.62-1.07-.8-.46-1.67-.81-2.49-1.24a2.71,2.71,0,0,1-.93-.82.55.55,0,0,1-.07-.45,9.24,9.24,0,0,1,.51-1.83c.17-.44.16-.94.31-1.4.24-.7.47-1.4.7-2.1a.46.46,0,0,1,.21-.29c.51-.24.55-.72.61-1.19,0-.23,0-.47,0-.7a.29.29,0,0,0-.08-.25c-.3-.24-.21-.53-.13-.83a9.56,9.56,0,0,0,.33-1.85.66.66,0,0,1,.3-.59,1.51,1.51,0,0,0,.62-1.14c0-.19-.11-.27-.24-.32a4.71,4.71,0,0,1-1.63-1.05,4.87,4.87,0,0,0-2.27-1.09c.32-.18.63,0,.93-.13a2.31,2.31,0,0,0-1-.46,4.11,4.11,0,0,0-2.79,0s-.11.07-.16,0,0-.13,0-.19.15-.22,0-.3-.2,0-.3.09a4.17,4.17,0,0,0-2.08,2.1s0,.05-.06.08a6.57,6.57,0,0,1-.15-1,4.51,4.51,0,0,0-.2,1.29.77.77,0,0,1-.44.72,1.15,1.15,0,0,0-.6,1l.57-.32c.08.09,0,.17,0,.25a5.29,5.29,0,0,0-.07,3,.75.75,0,0,1,0,.49,1.58,1.58,0,0,0,.06,1.36.94.94,0,0,0,.75.61.51.51,0,0,1,.47.48c.15.78.2,1.57.32,2.36a1.72,1.72,0,0,1-.77,1.56,1.61,1.61,0,0,1-2,.23,12.72,12.72,0,0,0-1.31-.58c-.38-.17-.57-.53-.86-.79-.91-.77-.69-1.77-.53-2.75,0-.3.06-.61.08-.92a15.84,15.84,0,0,0,.1-1.7c0-.72.11-1.45,0-2.18a25.45,25.45,0,0,1,0-2.62,4.73,4.73,0,0,0,0-1.3,1.32,1.32,0,0,1-.08-.59c0-.1,0-.24.07-.29a10.65,10.65,0,0,0,.74-1.19,4.62,4.62,0,0,1,.28,2.11c0,.27,0,.61.29.73s.55-.11.78-.29a11,11,0,0,0,1.3-1.25,4.42,4.42,0,0,0,.9-1.1,2.21,2.21,0,0,1,.57-.65c.32-.27.46-.68.83-.9A2.56,2.56,0,0,0,66,58.7c.06-.07.16-.13.11-.23s-.15-.06-.24-.06c-.69,0-1.38.11-2.08.09a1,1,0,0,1-1-.53,17.75,17.75,0,0,0-1.94-2.78c-.52-.64-1-1.34-1.47-2a.86.86,0,0,1-.06-1,5.58,5.58,0,0,0,.62-2c0-.32-.07-.66,0-1a6.6,6.6,0,0,0-.4-2.33,7.1,7.1,0,0,0-1.34-2.32.58.58,0,0,0-.27-.19h-.2a7.39,7.39,0,0,0-1.23,1.14l0,.05c-.21.2-.35.54-.62.59s-.43-.33-.63-.52-.34,0-.46.11l-3.21,3.3L48,52.66c-.41.42-.41.5,0,.87s.36.3,0,.65L46.8,55.44c-.42.43-.41.65.07,1a7.22,7.22,0,0,0,4.71,1.5,5.17,5.17,0,0,0,2.25-.48,3.45,3.45,0,0,1,1.68-.34,3.17,3.17,0,0,0,1.59-.38c.15-.08.31-.2.5-.08s.07.3.07.45a23.82,23.82,0,0,1-.27,3.38A2.49,2.49,0,0,1,56.87,62c-.17.17-.15.46-.16.7a8.34,8.34,0,0,1-.63,2.4c-.39,1.1-.65,2.25-1,3.38a7.57,7.57,0,0,0-.34,2.87,1.58,1.58,0,0,1-.13.83.77.77,0,0,0-.07.42c.14.68,0,1.38.19,2.06a4.81,4.81,0,0,0,.4,1.25,15.6,15.6,0,0,1,1,2.81c.27.87.56,1.73.78,2.61a15.07,15.07,0,0,1,.36,4.13v1.12c-.42-.23-.81-.43-1.18-.65a40.86,40.86,0,0,1-5.88-4.08,17.69,17.69,0,0,1-4-4.52,22.39,22.39,0,0,1-1.57-3c-.28-.71-.55-1.43-.79-2.16a22.35,22.35,0,0,1-1.13-6.93c0-1.76,0-3.52,0-5.28,0-.85-.11-1.71,0-2.56.13-1.52,0-3,.14-4.56,0-.37,0-.74,0-1.11a2.8,2.8,0,0,1,1.28-2.31,21.26,21.26,0,0,1,4.93-2.58A43.23,43.23,0,0,1,54.71,45a20,20,0,0,1,3-.62h0a.24.24,0,0,1,.2-.06h0c.85-.16,1.7-.31,2.56-.41s1.91-.22,2.87-.29,1.88-.14,2.82-.15c1.4,0,2.8,0,4.2.12a51.11,51.11,0,0,1,6.15.86A47.29,47.29,0,0,1,86.6,47.52a11.89,11.89,0,0,1,3.44,2,3.14,3.14,0,0,1,1.18,2.31Q91.29,58.11,91.28,64.34Zm-38.47-7.6a5.91,5.91,0,0,1-4.3-.51.74.74,0,0,1-.36-.29c-.12-.2-.13-.31.07-.54s.2-.25.36-.43.52-.43.79-.21a14.49,14.49,0,0,0,3.28,1.89Zm19.38-24c.67.09,1.34.18,2,.29,1,.15,1.89.35,2.84.51,1.27.23,2.5.59,3.74.92s2.15.69,3.23,1,1.83.71,2.73,1.09a23.84,23.84,0,0,1,2.33,1.26,5.72,5.72,0,0,1,1.68,1.46,3.07,3.07,0,0,1,.44,1.89c0,.53,0,1.08,0,1.61.1,1.08.05,2.15.09,3.23a9.39,9.39,0,0,1,0,1.06,2.67,2.67,0,0,1-.9-.47,38.74,38.74,0,0,0-9.89-3.87A52.77,52.77,0,0,0,74,41.41a43.46,43.46,0,0,0-5.22-.48c-1.63,0-3.26,0-4.9.07a53.22,53.22,0,0,0-7,.89,50.51,50.51,0,0,0-7.47,2,27.06,27.06,0,0,0-6.17,2.93L43,47c-.17.13-.24,0-.28-.15a2.44,2.44,0,0,1,0-.27V43.92c0-.93,0-2.23.11-3.53a2.44,2.44,0,0,1,.89-1.7c.31-.28.66-.52,1-.78a6.29,6.29,0,0,1,1.14-.76S59.26,31,72.19,32.73ZM54.42,34"/></svg>