<svg id="Layer_1" data-name="Layer 1" xmlns="http://www.w3.org/2000/svg" viewBox="0 0 32 32"><defs><style>.cls-1{fill:#00c0f4;}.cls-2{fill:#acb2c8;}.cls-3{fill:#8e92ae;}.cls-4{fill:#c0cbf6;}.cls-5{fill:#fefefe;}.cls-6{fill:#8097ed;}.cls-7{fill:#9daff1;}.cls-8{fill:#c4cef6;}</style></defs><circle cx="16.09" cy="16" r="15.5"/><path class="cls-1" d="M6.48,15.89C6.48,9.93,11.62,5.1,18,5.1a12,12,0,0,1,5.37,1.25A12.72,12.72,0,0,0,16.6,4.44C9.87,4.44,4.41,9.57,4.41,15.89S9.87,27.34,16.6,27.34a12.63,12.63,0,0,0,6.73-1.91A12,12,0,0,1,18,26.68C11.62,26.68,6.48,21.85,6.48,15.89Z"/><path class="cls-2" d="M18.05,20.92h0s0,0,0,0S18,20.93,18.05,20.92Z"/><path class="cls-3" d="M18.05,11.05h0a0,0,0,0,1,0,0h0Z"/><path class="cls-3" d="M18.06,11.05h0Z"/><path class="cls-3" d="M18,11.05h0Z"/><path class="cls-4" d="M16.4,24.21c0,.1-.07,0-.09,0L16,23.67q-1.77-2.88-3.53-5.76l-1.27-2.06s0-.07,0-.07a.27.27,0,0,1,.12,0l2.47,1.11L16.26,18c.06,0,.12,0,.14.12a.78.78,0,0,1,0,.22v5.59A2.45,2.45,0,0,1,16.4,24.21Z"/><path class="cls-5" d="M16.4,24.21s0-.1,0-.16v-6a6.66,6.66,0,0,1,.72-.33c.86-.4,1.73-.78,2.59-1.16l1.65-.74c.06,0,.13-.11.2,0L20,18.28Z"/><path class="cls-6" d="M16.37,18.08a5.93,5.93,0,0,1-.69-.29l-3.12-1.4-1.21-.54s-.11-.1-.16,0-.07-.09,0-.13l1.85-1.08,1.8-1,1.45-.85.08,0a.34.34,0,0,1,0,.2v4.95a.29.29,0,0,1-.05.2Z"/><path class="cls-4" d="M16.37,18.08V12.9a.91.91,0,0,1,0-.17c.89.52,1.78,1,2.68,1.55l2.39,1.4s.2,0,.09.15c0-.06-.08,0-.11,0l-1.73.77-2.59,1.16Z"/><path class="cls-4" d="M16.37,11.75c-.32.16-.62.35-.93.53L12.54,14l-1.25.73,0,0s0,0,0,0L12.44,13l2-2.78c.61-.84,1.22-1.69,1.84-2.53,0,0,0-.14.11-.05a1.51,1.51,0,0,1,0,.3v3.61C16.42,11.59,16.44,11.68,16.37,11.75Z"/><path class="cls-5" d="M16.37,11.75v-4s0-.08,0-.11l3.29,4.56,1.74,2.4.08.12s0,0,0,0l-3.15-1.82Z"/><path class="cls-7" d="M11.21,14.68l0,0s0,.06-.07,0S11.19,14.69,11.21,14.68Z"/><path class="cls-8" d="M21.48,14.71l0,0s.06,0,0,.06S21.5,14.73,21.48,14.71Z"/><path class="cls-3" d="M29.82,20.69h0Z"/><path class="cls-3" d="M29.83,20.7h0Z"/><path class="cls-3" d="M29.81,20.7h0Z"/></svg>