<svg id="Layer_1" data-name="Layer 1" xmlns="http://www.w3.org/2000/svg" xmlns:xlink="http://www.w3.org/1999/xlink" viewBox="0 0 1080 1080"><defs><style>.cls-1{fill:#f5efe2;}.cls-2{fill:#f1ece2;}.cls-3{fill:#5e93ff;}.cls-4{fill:#3180f4;}.cls-5{fill:#fdbf41;}.cls-6{fill:#404a5a;}.cls-7{fill:#c18b00;}.cls-8{fill:#e7aa24;}.cls-9{fill:#f10;}.cls-10{fill:#007fff;}.cls-11{fill:#215cb5;}.cls-12{fill:#fec35e;}.cls-13{opacity:0.48;isolation:isolate;fill:url(#linear-gradient);}</style><linearGradient id="linear-gradient" x1="-3262.44" y1="2461.69" x2="-3220.2" y2="2428.69" gradientTransform="matrix(0.58, 0.81, 0.81, -0.58, 497.8, 4737.56)" gradientUnits="userSpaceOnUse"><stop offset="0.16" stop-color="#191919"/><stop offset="0.97" stop-color="#191919" stop-opacity="0"/></linearGradient></defs><circle class="cls-1" cx="539.87" cy="538.5" r="505.5"/><path class="cls-2" d="M752.29,680.13c-.31.26-.62.48-.93.71l-1,.68c-.62.43-1.25.85-1.87,1.25l-.23.14c-.51.34-1,.65-1.59,1-.79.48-1.56.93-2.38,1.36a122.69,122.69,0,0,1-17.08,7.66c-5.53,2-11.15,3.8-16.8,5.39-8.11,2.27-16.34,4.14-24.6,5.79-8.06,1.62-16.11,3-24.23,4.17s-16.26,2.16-24.4,3c-2.67.28-5.33.54-8,.79q-8,.72-16.09,1.28l-8.05.51c-6,.34-12,.59-18,.79-1.08,0-2.18.09-3.29.12l-3,.08c2.47-3,4.94-6.07,7.18-9.28.31-.39.65-.79,1-1.22q7.6-10.25,14.61-20.94c.48,0,.93,0,1.42-.08,3-.17,5.9-.34,8.88-.57,2.24-.14,4.48-.31,6.72-.48,15.66-1.22,31.27-3,46.82-5.39,4.51-.71,9-1.48,13.5-2.3,10.47-2,20.88-4.26,31.13-7.21,2.24-.65,4.48-1.33,6.72-2,1.14-.34,2.24-.71,3.35-1.08a25.16,25.16,0,0,1,4.79,1.59c1.4.51,2.79,1,4.18,1.59a124.23,124.23,0,0,1,11.52,5.25c1.47.76,2.92,1.59,4.34,2.47a51.26,51.26,0,0,1,5.47,3.74c.51.4.65.57.46.8a3.13,3.13,0,0,1-.49.42Z"/><path class="cls-3" d="M607.11,752.28a1.1,1.1,0,1,1-.77,0,.93.93,0,0,1,.4-.06A1,1,0,0,1,607.11,752.28Z"/><path class="cls-3" d="M605.77,752.37a1.71,1.71,0,0,1-1.24.06A1.27,1.27,0,0,1,605.77,752.37Z"/><path class="cls-3" d="M604.19,752.43a1.84,1.84,0,0,1-1.22.08A1.32,1.32,0,0,1,604.19,752.43Z"/><path class="cls-3" d="M602.62,752.51a1.53,1.53,0,0,1-1.22.06h.06a1.46,1.46,0,0,1,1.19-.06Z"/><path class="cls-3" d="M600.21,752.48a1.73,1.73,0,0,1,.83.09,1.55,1.55,0,0,1-1.25,0,1.22,1.22,0,0,1,.39-.14Z"/><path class="cls-3" d="M598.82,752.54a1.74,1.74,0,0,1,.63.11,1.66,1.66,0,0,1-1.22.06A1.21,1.21,0,0,1,598.82,752.54Z"/><path class="cls-3" d="M597.57,752.62l.29.09a1.52,1.52,0,0,1-1.22.06,1.26,1.26,0,0,1,.88-.15Z"/><path class="cls-3" d="M596.27,752.77a2.15,2.15,0,0,1-1.48.05A2,2,0,0,1,596.27,752.77Z"/><path class="cls-3" d="M594.45,752.82a1.65,1.65,0,0,1-1.22.06A1.32,1.32,0,0,1,594.45,752.82Z"/><path class="cls-3" d="M699.23,657.52c.2,0,.43,0,.63.06a.87.87,0,0,1,.74.34,4.22,4.22,0,0,1-1.56-.43h.19Z"/><path class="cls-4" d="M471.77,789.23s.08.17.11.25h-8.34a2.44,2.44,0,0,0,.14-.25h8.09Z"/><path class="cls-5" d="M722,664.27c-1.11.37-2.24.74-3.35,1.08-2.24.71-4.48,1.39-6.72,2-10.25,2.93-20.66,5.25-31.13,7.21-4.48.82-9,1.59-13.5,2.3-15.52,2.44-31.13,4.17-46.82,5.39-2.24.17-4.48.34-6.72.48-3,.2-5.9.4-8.88.57-.49,0-.94.06-1.42.08q4.8-7.35,9.36-14.92c4.37-7.29,8.51-14.7,12.48-22.19,7.55.66,15.1,1.42,22.65,2.36.56.05,1.1.17,1.67.25,3.38.26,6.72.77,10,1.25q6.44.95,12.86,2c5.76,1,11.52,2.05,17.25,3.3l9.28,2a4.21,4.21,0,0,0,1.56.42c6.61,1.71,13.19,3.47,19.66,5.62a3.54,3.54,0,0,1,1.73.77Z"/><path class="cls-2" d="M502.41,712.9c2.67.2,5.34.43,8,.6C507.75,713.33,505.08,713.1,502.41,712.9Z"/><path class="cls-6" d="M417.15,772.43a.61.61,0,0,1-.51-.23h.28l.09.06h0a.88.88,0,0,0,.08.11h0Z"/><path class="cls-6" d="M416.64,772.2h0a.52.52,0,0,1-.51-.23h.14a.75.75,0,0,1,.34.23h0Z"/><polygon class="cls-6" points="416.1 771.91 416.1 771.91 416.11 771.93 416.11 771.93 416.1 771.91"/><polygon class="cls-6" points="416.1 771.95 416.1 771.95 416.07 771.92 416.1 771.95"/><path class="cls-6" d="M416.1,772c-.23,0-.42,0-.54-.26h0c.23,0,.4,0,.51.23h0Z"/><polygon class="cls-6" points="415.59 771.69 415.56 771.69 415.56 771.69 415.56 771.66 415.56 771.66 415.59 771.69 415.59 771.69"/><polygon class="cls-6" points="415.59 771.69 415.56 771.66 415.59 771.66 415.59 771.69 415.59 771.69"/><path class="cls-6" d="M415.59,771.66h0c-.23,0-.45.06-.51-.22h0a.43.43,0,0,1,.54.22Z"/><path class="cls-6" d="M413.52,770.36l.48.25.37.17a1.61,1.61,0,0,1,.54.43,1.54,1.54,0,0,1,.14.23,3.17,3.17,0,0,1-1.84-.8l.34-.28Z"/><path class="cls-2" d="M461.41,747.86c-.56.08-1.16.2-1.73.25a56.34,56.34,0,0,1-6.72.54h-2.27c-.77,0-1.51,0-2.27,0-.34,0-.65-.06-1-.09l-1-.11a1.69,1.69,0,0,1-1.05-.49c-.88-.82-1.76-1.64-2.58-2.49C449,746.33,455.23,747.12,461.41,747.86Z"/><path class="cls-2" d="M558.7,643.45c-4.45,0-8.91,0-13.33.14a350.25,350.25,0,0,1-24.12,33.11c-1.84,2.21-3.69,4.4-5.59,6.55-4.79,5.45-9.76,10.7-15,15.72-4.57,4.4-9.3,8.6-14.27,12.54-3.86,3.09-7.83,6-12,8.77a118.32,118.32,0,0,1-24.2,12.57,76.39,76.39,0,0,1-13.4,3.66,5.19,5.19,0,0,0-.73.23.48.48,0,0,0,.05.22.14.14,0,0,0,.06.14c.34.52.65,1,1,1.48.68,1,1.39,1.93,2.13,2.87,1.11,1.39,2.3,2.72,3.52,4,6.18.91,12.37,1.71,18.55,2.44,1.65-.25,3.3-.56,4.94-1a86.76,86.76,0,0,0,11-3.46c1.79-.71,3.57-1.45,5.33-2.24s3.49-1.68,5.19-2.56l2.22-1.19a144.83,144.83,0,0,0,14.78-9.39c4.74-3.4,9.28-7.09,13.68-11,.62-.57,1.24-1.11,1.87-1.68.45-.42.91-.85,1.39-1.27,2.84-2.58,5.59-5.25,8.28-8,1-1,2.07-2.12,3.12-3.2,3.38-3.55,6.7-7.18,9.91-10.9,1.93-2.24,3.8-4.48,5.67-6.78.23-.28.46-.57.68-.82,1.28-1.59,2.53-3.18,3.78-4.8,3.91-5.07,7.71-10.27,11.35-15.54,1.95-2.87,3.88-5.74,5.78-8.66,1.05-1.64,2.1-3.29,3.12-4.93,1.42-2.27,2.81-4.54,4.2-6.84-6.35-.14-12.68-.23-19-.23Z"/><path class="cls-7" d="M389.29,760a.37.37,0,0,1-.46-.23C389.06,759.72,389.23,759.77,389.29,760Z"/><path class="cls-5" d="M521,644.38q-4.77.21-9.54.51-5.23,7.41-10.84,14.53c-3.68,4.65-7.46,9.22-11.43,13.65-2.24,2.52-4.54,5-6.84,7.46-1.64,1.73-3.32,3.46-5,5.13a208.16,208.16,0,0,1-21.68,18.67c-1.27.94-2.55,1.88-3.88,2.78a140.32,140.32,0,0,1-13.42,8.29c-3.35,1.82-6.81,3.43-10.33,4.91a1.77,1.77,0,0,0,.05.51c.49,1.36,1,2.69,1.59,4s1.17,2.61,1.79,3.91a72,72,0,0,0,4.2,7.52h0a1.9,1.9,0,0,0,.43.46,6.83,6.83,0,0,1,.73-.23,75.22,75.22,0,0,0,13.4-3.66,116.35,116.35,0,0,0,24.2-12.57c4.14-2.75,8.11-5.67,12-8.77,4.94-3.94,9.68-8.14,14.27-12.54,5.25-5,10.22-10.27,15-15.72,1.9-2.15,3.75-4.34,5.59-6.55a346.43,346.43,0,0,0,24.12-33.11c-8.12.14-16.26.4-24.37.79Z"/><path class="cls-8" d="M680.74,522.12c.25,0,.53,0,.36-.39a1.5,1.5,0,0,1,.37,0c-.08,0-.14,0-.17.06s-.11.25-.08.42a3.85,3.85,0,0,1-.48,0h-.29a3.8,3.8,0,0,1-.59-.06,11,11,0,0,1-1.37-.26,20.64,20.64,0,0,1,2.25.26Z"/><path class="cls-2" d="M449,676.07l1,.17a198,198,0,0,1-19.75,16.83,87.3,87.3,0,0,1-7.83,5.36,58.65,58.65,0,0,1-1-6.67,181.56,181.56,0,0,1-1.22-21.47c1.73.42,3.46.82,5.22,1.22,5.08,1.16,10.18,2.18,15.32,3.15,2.75.51,5.53,1,8.28,1.44Z"/><path class="cls-9" d="M477.53,647.81c-.74.09-1.48.18-2.21.23a283.24,283.24,0,0,1-23.7,26.62c-.53.53-1.07,1.05-1.64,1.58a5.7,5.7,0,0,1,.74.15c-.26,0-.51-.09-.77-.12A199.37,199.37,0,0,1,430.2,693.1a87.3,87.3,0,0,1-7.83,5.36,4.68,4.68,0,0,0,.09.91v.25c.05.34.14.68.2,1s.08.53.14.82c.14.68.25,1.39.39,2.07a119,119,0,0,0,2.93,11.66,28.66,28.66,0,0,0,1.81,5.08c3.52-1.48,7-3.09,10.33-4.91a137.33,137.33,0,0,0,13.42-8.28c1.31-.91,2.61-1.82,3.89-2.78a205.84,205.84,0,0,0,21.67-18.67c1.71-1.68,3.38-3.41,5-5.14,2.32-2.44,4.59-4.94,6.83-7.46,4-4.43,7.75-9,11.44-13.65s7.35-9.59,10.84-14.53q-17,1-33.91,2.9Z"/><path class="cls-2" d="M450.72,676.36c-.26,0-.51-.09-.77-.12h0c.26,0,.51.09.74.12Z"/><path class="cls-9" d="M450,676.22l-1-.17,1,.17Z"/><path class="cls-9" d="M440.73,674.63c2.75.51,5.53,1,8.28,1.44C446.26,675.62,443.48,675.14,440.73,674.63Z"/><path class="cls-5" d="M470.46,648.72a47.71,47.71,0,0,1,4.86-.68,283.24,283.24,0,0,1-23.7,26.62c-.53.53-1.07,1.05-1.64,1.58l-1-.17c-2.75-.45-5.53-.93-8.28-1.44q-7.71-1.41-15.32-3.15c-1.73-.4-3.46-.82-5.22-1.22,0-2.7,0-5.42.11-8.15.06-1.61.11-3.2.2-4.82,5.9-1.42,11.83-2.64,17.82-3.77,10.18-1.93,20.43-3.49,30.7-4.77.17,0,.34-.06.48-.06a3.62,3.62,0,0,1,.57,0,.83.83,0,0,1,.34.05Z"/><path class="cls-10" d="M652.14,518.21c6,.74,11.88,1.44,17.84,2.18a.55.55,0,0,1-.14.17c-3.69-.45-7.4-.88-11.09-1.36-1.08-.14-2.16-.23-3.24-.34a30.8,30.8,0,0,1-3.2-.45,1.26,1.26,0,0,0-.2-.2Z"/><path class="cls-2" d="M623,536.68c.22-.85.42-1.7.65-2.56C623.42,535,623.22,535.83,623,536.68Z"/><path class="cls-2" d="M793.86,656.13V631.59a20.49,20.49,0,0,0-2.5-6.5,32.31,32.31,0,0,0-7.52-8.46,78.13,78.13,0,0,0-10-6.75c-4.82-2.7-9.84-5-14.86-7.26-.91-.4-1.82-.6-2.73-1A269.39,269.39,0,0,0,721.34,591c-7.61-1.84-15.24-3.43-22.93-4.88q-12.93-2.42-26-4.2c-6-.82-12-1.56-18-2.24-2.66-.28-5.33-.59-8-.85-7.57-.74-15.12-1.42-22.7-2-4.48-.34-8.93-.62-13.42-.85q-5.7-.3-11.4-.56-9-.44-18-.63c-.43,0-.88,0-1.31,0-9.45-.2-18.92-.25-28.37-.2h-.45q-14.61.13-29.2.71c-.6,0-1.16.06-1.73.09q-17.28.72-34.47,2.18c-16.86,1.42-33.65,3.35-50.39,6-.4.06-.8.11-1.2.2-.65,2.27-1.22,4.57-2,6.78-.57,2.27-1.13,4.54-1.7,6.81-1.53,6-2.92,12.09-4.14,18.16l2.55-.43c1.11-.2,2.24-.37,3.35-.56,1.64-.29,3.32-.54,5-.8,6-.94,12-1.76,18-2.52s12-1.42,18.07-2.05q6-.58,12.09-1.1c6.1-.51,12.2-.94,18.33-1.34,5.76-.34,11.49-.65,17.25-.88,1.48-.05,2.95-.14,4.43-.2l6.61-.22c1.42,0,2.83-.09,4.25-.12,5.2-.11,10.36-.19,15.55-.25,2,0,3.89,0,5.85,0,3.34,0,6.69,0,10,0,1.22,0,2.41,0,3.63,0s2.61,0,3.92.05c3.55.06,7.06.15,10.61.26s7.07.23,10.61.37c.6,0,1.17,0,1.76.08,3.8.17,7.58.34,11.38.57,2.92.17,5.82.34,8.74.54q6.55.42,13.11,1c4,.34,8,.71,12.05,1.11a2,2,0,0,1,.43,0l8.65.85c4.63.45,9.23,1,13.85,1.62s9.19,1.27,13.79,2c1.9.28,3.83.56,5.73.87,5.7.91,11.43,2,17.11,3.07,3.35.65,6.67,1.33,10,2.07s6.63,1.48,10,2.3c5,1.25,10,2.55,15,4,6.62,2,13.14,4.11,19.55,6.67,1.62.62,3.21,1.3,4.8,2,2.41,1,4.79,2.19,7.15,3.35.57.28,1.16.57,1.73.88l1.36.68c.6.28,1.19.6,1.79.94a23.19,23.19,0,0,1,2.18,1.3c2.67,1.85,5.39,3.58,7.86,5.68.57.48,1.14,1,1.68,1.5s1.25,1.11,1.84,1.7a26.35,26.35,0,0,1,2.67,3.12,13.35,13.35,0,0,1,1.08,1.68c.28.48.56,1,.82,1.5s.48,1.05.71,1.59a15.38,15.38,0,0,1,.59,1.65c.12.39.26.79.37,1.19h0v0h0a28.74,28.74,0,0,0,.15-5Z"/><path class="cls-5" d="M793.94,628.35V609.77q0-4.31-.05-8.57a31.73,31.73,0,0,0-1.59-4.83,30.34,30.34,0,0,0-7.89-9.73,66.44,66.44,0,0,0-11.52-7.8,139.37,139.37,0,0,0-18.41-8.4c-7.35-2.72-14.81-5.13-22.36-7.18-5.79-1.56-11.58-3-17.42-4.34-6.64-1.5-13.34-2.83-20-4-7-1.22-13.93-2.38-21-3.35-3.32-.45-6.64-.9-10-1.3-7.43-1-14.9-1.79-22.36-2.44-1.39-.11-2.75-.34-4.14-.43-5.65-.42-11.29-.85-16.91-1.25l-2.41-.17c-3.78-.28-7.52-.53-11.29-.73-4.91-.26-9.79-.43-14.7-.6h-.14c-5.11-.17-10.25-.37-15.35-.45-4.51-.09-9-.12-13.54-.14h-6c-7.91,0-15.8.11-23.72.34h-.34c-9.27.28-18.55.65-27.8,1.24-7.12.46-14.24.86-21.37,1.45-2.86.26-5.76.6-8.62.88-10,1-20,2.16-30,3.58a1.27,1.27,0,0,0-.34.05c-4,10.3-7.58,20.77-10.73,31.41-.08.26-.14.54-.22.8.39-.06.79-.15,1.19-.2,16.71-2.64,33.51-4.57,50.39-6q17.24-1.44,34.47-2.18c.57,0,1.16-.06,1.73-.09,9.73-.4,19.47-.62,29.2-.71h.45q14.22-.12,28.37.2c.43,0,.86,0,1.31,0q9,.21,18,.62c3.8.17,7.6.37,11.41.57,4.48.26,8.93.54,13.42.85,7.57.54,15.15,1.22,22.69,2,2.67.25,5.34.54,8,.85q9,1,18,2.24,13,1.78,26,4.2c7.69,1.45,15.32,3,22.93,4.88a275.75,275.75,0,0,1,35,10.67c.91.34,1.82.57,2.73,1,5,2.27,10,4.54,14.87,7.27a79.85,79.85,0,0,1,9.95,6.75,32.63,32.63,0,0,1,7.52,8.46,20,20,0,0,1,2.5,6.49,17.45,17.45,0,0,0,.09-3.23Z"/><path class="cls-2" d="M618.37,394.22a84.78,84.78,0,0,1,9.37,20.68q1.05,3.41,1.9,6.81c.93,3.8,1.67,7.66,2.27,11.55.17,1.13.34,2.27.48,3.4.28,2.27.54,4.57.74,6.87.08,1.13.19,2.3.25,3.43.43,6.25.6,12.49.43,18.73q-.25,9.82-1.22,19.6c-.66,6.5-1.56,12.94-2.64,19.36q-1,5.78-2.13,11.51c-6.19-.48-12.37-.9-18.56-1.22-3-.14-6-.28-8.93-.45q3-13,5-26.19a271.4,271.4,0,0,0,2.89-29.36,212.56,212.56,0,0,0-.4-25.11,153.92,153.92,0,0,0-3-20.72,101.31,101.31,0,0,0-7.47-22.27c-1.33-2.84-2.92-5.53-4.51-8.2a19.53,19.53,0,0,1,4-.59c.7-.09,1.39-.15,2.09-.17l1.79-.09h2.9c.68,0,1.36.06,2,.09.51,0,1,.05,1.56.08a.8.8,0,0,1,.26,0,2,2,0,0,1,.45.14,2.91,2.91,0,0,1,.42.23,2.69,2.69,0,0,1,.57.45c.46.43.91.85,1.34,1.28.88.88,1.73,1.76,2.55,2.69a61.74,61.74,0,0,1,5.56,7.41Z"/><path class="cls-5" d="M604.81,413.14a155.41,155.41,0,0,1,3,20.71,206.32,206.32,0,0,1,.39,25.11,258,258,0,0,1-2.89,29.37c-1.33,8.82-3,17.54-5.05,26.19-2.27-.11-4.51-.23-6.78-.31-5.17-.2-10.33-.32-15.49-.43l-5.76-.11c1.87-7.1,3.54-14.25,5-21.45q1.62-8.09,2.84-16.26c.54-3.63,1-7.29,1.42-10.95.42-3.83.76-7.66,1-11.52q.39-6.18.51-12.34c.09-5.51-.08-11-.48-16.52-.26-3.63-.63-7.23-1.08-10.86a131.92,131.92,0,0,0-2.7-14.67,93.18,93.18,0,0,0-3.43-11.46,16.38,16.38,0,0,1,3.21-1.34c2.21-.82,4.45-1.53,6.69-2.15a70.18,70.18,0,0,1,6.9-1.54l.48-.08a.86.86,0,0,1,.28,0c1.59,2.69,3.18,5.39,4.52,8.2A101.81,101.81,0,0,1,604.84,413Z"/><path class="cls-4" d="M669.73,400.49s-.06-.06-.06-.09v0l.09,0v.09Z"/><path class="cls-10" d="M793.83,690.57c0-.39.06-.76.06-1.16V670.23c0-2.75-.06-5.53-.06-8.29a3,3,0,0,0,.06-.51h0a1.4,1.4,0,0,1-.14-.28h0c-.12-.4-.26-.79-.37-1.19a15.43,15.43,0,0,0-.6-1.65c-.23-.54-.45-1.08-.71-1.59s-.54-1-.82-1.5-.71-1.13-1.08-1.67a23.7,23.7,0,0,0-2.67-3.12,24.82,24.82,0,0,0-1.84-1.71,20,20,0,0,0-1.68-1.5c-2.46-2.1-5.19-3.83-7.85-5.68a21.76,21.76,0,0,0-2.19-1.3c-.6-.31-1.16-.62-1.79-.94l-1.36-.68c-.57-.28-1.16-.57-1.73-.88-2.35-1.16-4.74-2.3-7.15-3.35-1.59-.68-3.18-1.33-4.79-2-6.42-2.56-12.94-4.74-19.55-6.67-5-1.47-10-2.78-15-4-3.32-.82-6.62-1.59-10-2.3s-6.67-1.41-10-2.07c-5.67-1.13-11.4-2.15-17.11-3.06-1.9-.31-3.8-.6-5.73-.88-4.6-.68-9.19-1.36-13.79-2s-9.22-1.16-13.84-1.62l-8.66-.85a2,2,0,0,1-.42,0c-4-.39-8-.76-12.06-1.1q-6.56-.51-13.11-1c-2.92-.2-5.82-.37-8.74-.54-3.8-.19-7.57-.39-11.38-.56-.59,0-1.16-.06-1.76-.09-3.54-.14-7.06-.28-10.61-.37s-7.06-.2-10.61-.25c-1.3,0-2.61,0-3.91-.06s-2.42,0-3.64,0c-3.34,0-6.69,0-10,0-2,0-3.92,0-5.85,0-5.19,0-10.35.12-15.55.26-1.41,0-2.83,0-4.25.11-2.21.06-4.4.14-6.61.23-1.48,0-3,.11-4.43.2-5.76.25-11.49.54-17.25.88-6.1.36-12.23.82-18.33,1.33q-6,.51-12.08,1.11c-6.05.59-12.06,1.27-18.08,2s-12,1.59-18,2.52c-1.68.26-3.32.54-5,.8-1.11.17-2.24.37-3.35.57l-2.55.42c1.22-6.1,2.61-12.14,4.14-18.16q.85-3.4,1.7-6.81c.83-2.21,1.39-4.51,2.05-6.78.08-.25.14-.54.22-.79,3.15-10.61,6.76-21.08,10.73-31.41,2.52-6.56,5.22-13,8.06-19.44,1.9-4.31,3.88-8.57,5.93-12.82a413.78,413.78,0,0,1,22.61-40.77A343.31,343.31,0,0,1,506.89,443a6.53,6.53,0,0,0,.52-.74c2.78-3.2,5.53-6.44,8.39-9.56a218.5,218.5,0,0,1,30.39-28.17c2.72-2.05,5.56-4,8.34-6a1.89,1.89,0,0,1,.88-.23c.14-.4.51-.57.83-.79A116.69,116.69,0,0,1,574.17,388c.22-.08.42-.19.68-.28a.82.82,0,0,0,.22-.06h.23a17,17,0,0,1,3.21-1.33c2.21-.82,4.45-1.53,6.69-2.16s4.57-1.13,6.9-1.53l.48-.08a1.27,1.27,0,0,1,.28,0,19.53,19.53,0,0,1,4-.59c.71-.09,1.39-.14,2.1-.17l1.78-.09h2.9c.68,0,1.36.06,2,.09.51,0,1.05.06,1.56.08a.77.77,0,0,1,.26,0,2.65,2.65,0,0,1,.45.14c.14.06.28.15.43.23a2.63,2.63,0,0,1,.56.46c.46.42.91.85,1.34,1.27.88.88,1.73,1.76,2.55,2.7a60.85,60.85,0,0,1,5.56,7.4,84.27,84.27,0,0,1,9.36,20.69c.71,2.27,1.34,4.54,1.91,6.81.93,3.8,1.67,7.66,2.27,11.54.17,1.14.34,2.27.48,3.41.28,2.27.54,4.57.74,6.86.08,1.14.19,2.3.25,3.44.43,6.24.6,12.48.43,18.72-.17,6.56-.57,13.08-1.22,19.61S631,498.15,630,504.56c-.65,3.86-1.36,7.69-2.13,11.52,1,.08,2,.14,3,.23,7.18.59,14.35,1.3,21.5,2a1.7,1.7,0,0,0-.19-.2L670,520.28a.7.7,0,0,1-.14.17c.37.06.71.11,1.08.14,1.19-5.87,2.27-11.77,3.18-17.7q1.23-8,2.07-16c.54-5,1-10,1.22-15,.11-2.42.25-4.86.39-7.27,0-.31-.14-.74.35-.88,0-4.51,0-9,0-13.53-.26-.09-.26-.31-.29-.54,0-.91-.17-1.82-.2-2.72a180,180,0,0,0-1.67-19.55,149,149,0,0,0-4.4-21.23,33.74,33.74,0,0,0-1.67-5.16l-.17-.6s-.06-.05-.06-.08v-.06c-.06-.2-.08-.42-.14-.62a89.79,89.79,0,0,0-11.83-23.38,59.62,59.62,0,0,0-18.42-17c-2.78-1.61-5.78-2.75-8.65-4.2a4.9,4.9,0,0,0-.88-.17,2,2,0,0,0-1-.56l-20.2-8.94a9.66,9.66,0,0,0-2.64-1.08l-.48-.17A25.77,25.77,0,0,1,602,343a1.13,1.13,0,0,1-.28-.12.2.2,0,0,1-.14-.05h0a.34.34,0,0,1-.29-.09,63.58,63.58,0,0,0-6.52-1.27c-1.59-.23-3.18-.4-4.77-.49-.54,0-1.08-.05-1.59-.05-1.59,0-3.17,0-4.76.05-2.1.09-4.2.29-6.27.57a83.83,83.83,0,0,0-10.84,2.27c-.51.14-1,.28-1.53.45a111.39,111.39,0,0,0-19.35,7.89c-2.08,1.08-4.12,2.19-6.13,3.35-1.85,1.05-3.66,2.16-5.48,3.29-.6.37-1.19.77-1.79,1.14h0c-.59.39-1.19.76-1.76,1.16-1.19.79-2.35,1.59-3.49,2.44-.56.43-1.13.82-1.73,1.25v.11a.14.14,0,0,1-.05.09.34.34,0,0,1-.2.05h0v.09a.41.41,0,0,1-.06.11h-.17c-2.52,1.76-5,3.63-7.4,5.56-1.08.85-2.13,1.73-3.18,2.61-.17.15-.34.29-.48.43-1.08.91-2.16,1.84-3.21,2.78v.08a.26.26,0,0,1-.09.18h-.17c0,.05-.08.11-.11.17l-.17.17a1.26,1.26,0,0,1-.31.14.28.28,0,0,1-.09.25c-.08.06-.25,0-.37,0-.39.43-.82.82-1.22,1.25,0,0-.05.06-.08.08V379a.25.25,0,0,1-.06.14h0a.2.2,0,0,1-.17,0c-.37.29-.74.57-1.1.88,0,0-.06.06-.09.09q-2,1.86-3.94,3.74l-.26.26c-.4.39-.82.79-1.25,1.16-1.05,1-2.12,1.9-3.12,2.92l-1.62,1.65c-3.12,3.15-6.18,6.33-9.16,9.62-3.8,4.2-7.49,8.45-11.07,12.82l-1.53,1.87a1.21,1.21,0,0,0-.22.32c-.12.14-.2.31-.32.45s-.25.43-.39.6-.2.28-.32.42a.23.23,0,0,1-.11.11,3.57,3.57,0,0,1-.54.49.09.09,0,0,1,0,.08.11.11,0,0,1,0,.09l0,0-.12.06c-.08.43-.42.63-.7.91l-.06.06c-.09.08-.14.17-.23.25s-.06.09-.06.14-.05.12-.05.17v.09c0,.08,0,.11-.09.17h-.08l-.06.06c-.65.82-1.33,1.64-2,2.46a.53.53,0,0,1-.12.15v.28a.27.27,0,0,1-.08.17v.06l-.2.14a.89.89,0,0,1-.26.11c-.11.12-.2.23-.31.34l-.11.12c-.09.08-.17.19-.26.28-1.7,2.27-3.37,4.54-5.08,6.81a.27.27,0,0,1-.08.17h0s-.09.08-.11.08c-1.17,1.65-2.36,3.27-3.52,4.94-.23.34-.46.65-.68,1-1.73,2.53-3.32,5.11-5.08,7.64-.85,1.24-1.68,2.52-2.53,3.8s-1.67,2.55-2.58,3.77c-1.45,2-2.69,4.14-4,6.27-.54.91-1.11,1.82-1.65,2.73a354.5,354.5,0,0,0-17.16,31.23,14.16,14.16,0,0,1-1,1.79c-.34.6-.71,1.17-1,1.79-1.73,3.49-3.43,7-5.05,10.5-.62,1.3-1.22,2.64-1.82,3.94q-1.19,2.6-2.32,5.19c-1,2.22-1.93,4.4-2.9,6.64L410,523.88c-.51,1.17-1,2.33-1.47,3.52q-2.56,6.21-4.94,12.51c-.45,1.22-.94,2.47-1.39,3.69-1.11,3-2.16,6-3.21,9-.25.71-.51,1.42-.76,2.15-.2.57-.37,1.14-.57,1.68-.48,1.42-1,2.86-1.39,4.28l-1.62,5.25c-.39,1.25-.76,2.5-1.19,3.75a44.47,44.47,0,0,0-2.33,8.51c0,.14-.19.28-.28.42a33.4,33.4,0,0,0-1,3.75c-.14.59-.34,1.19-.51,1.79s-.37,1.19-.54,1.78c-.68,2.59-1.36,5.17-2,7.75-.56,2.33-1.13,4.68-1.67,7-.6,2.63-1.16,5.27-1.7,7.94-.49,2.33-.94,4.63-1.36,7-.35,1.84-.69,3.69-1,5.53-.28,1.62-.54,3.27-.79,4.88-.34,2.07-.65,4.15-.94,6.22-.25,1.87-.51,3.71-.74,5.59q-.93,7.65-1.53,15.4c-.11,1.48-.2,3-.28,4.43s-.17,2.95-.23,4.42q-.16,4.44-.28,8.86v2.64c0,3.77.14,7.54.25,11.29v.51c0,.68.06,1.33.12,2q.21,4.1.65,8.15c.2,1.84.4,3.69.65,5.53,0,.25.09.54.11.79.52,3.72,1.08,7.44,1.82,11.15a127.87,127.87,0,0,0,5.65,20.26,1.43,1.43,0,0,0,.14.34,92.35,92.35,0,0,0,6.64,14.13A65.91,65.91,0,0,0,408.67,767c.79.62,1.61,1.22,2.47,1.82s1.67,1,2.52,1.56l.48.25.37.17a1.61,1.61,0,0,1,.54.43.93.93,0,0,1,.14.22h0a.43.43,0,0,1,.54.23h0a.51.51,0,0,1,.51.26h.14a.76.76,0,0,1,.35.22H417a.26.26,0,0,1,.08.06h0a.62.62,0,0,0,.09.11h0a2.41,2.41,0,0,0,1,.54q11.19,5,22.39,9.91a80.21,80.21,0,0,0,11.26,4.42,52.73,52.73,0,0,0,11.92,2h8.05a49.26,49.26,0,0,0,5.82-.6A91.22,91.22,0,0,0,500.31,782a159.55,159.55,0,0,0,36.63-22.58c2.47-2,4.91-4,7.29-6.1h0c8.37.14,16.74.2,25.11.11,8-.08,16-.23,23.95-.54a1.32,1.32,0,0,1,1.22-.06h.37a2.07,2.07,0,0,1,1.47,0h.37a1.21,1.21,0,0,1,.88-.14h.06l.28.08h.37a1.24,1.24,0,0,1,.6-.17,1.69,1.69,0,0,1,.62.11h.37a1.28,1.28,0,0,1,.4-.14,1.69,1.69,0,0,1,.82.09h.4a1.46,1.46,0,0,1,1.19-.06h.34a1.32,1.32,0,0,1,1.22-.08h.34a1.29,1.29,0,0,1,1.25-.06h.34a.79.79,0,0,1,.23-.11.89.89,0,0,1,.39-.06,1,1,0,0,1,.37.08c1.82-.08,3.63-.14,5.45-.25,13.93-.82,27.86-1.93,41.74-3.46a558.39,558.39,0,0,0,62.73-10.22,270.46,270.46,0,0,0,41.45-12.48,111,111,0,0,0,20.69-10.61,43,43,0,0,0,10.41-9.37,19.78,19.78,0,0,0,3.89-8,1.36,1.36,0,0,0,.34-.82,38.83,38.83,0,0,0,0-6.47Zm-187.2-45.68c-3.89-.22-7.75-.45-11.64-.62C598.88,644.44,602.74,644.67,606.63,644.89ZM520.51,715.4c-.62.57-1.24,1.11-1.87,1.67-4.4,3.86-8.94,7.55-13.67,11a149,149,0,0,1-14.79,9.39L488,738.61q-2.55,1.36-5.19,2.55c-1.76.8-3.52,1.56-5.34,2.24a86,86,0,0,1-11,3.46c-1.65.4-3.29.71-4.94,1h0c-.57.08-1.16.2-1.73.25a56.34,56.34,0,0,1-6.73.54h-2.27c-.76,0-1.5,0-2.27,0a9.49,9.49,0,0,1-1-.09l-1-.11a1.73,1.73,0,0,1-1.05-.48c-.88-.83-1.76-1.65-2.59-2.5-1.24-1.28-2.41-2.64-3.51-4-.74-.94-1.45-1.9-2.13-2.87-.34-.48-.68-1-1-1.47,0,0,0-.09,0-.14a.52.52,0,0,0-.06-.23,2.78,2.78,0,0,1-.42-.42h0c-1.54-2.47-2.93-5-4.2-7.55-.63-1.31-1.22-2.58-1.79-3.92s-1.11-2.66-1.59-4a1.49,1.49,0,0,1-.06-.51,28,28,0,0,1-1.81-5.08c-1.19-3.83-2.13-7.74-2.93-11.66-.14-.71-.28-1.39-.39-2.07-.06-.28-.09-.54-.14-.82s-.15-.68-.2-1v-.26l-.09-.91a58.65,58.65,0,0,1-1-6.67,181.56,181.56,0,0,1-1.22-21.47c0-2.7,0-5.42.11-8.15.06-1.61.12-3.2.2-4.82,5.9-1.42,11.83-2.64,17.82-3.77,10.18-1.93,20.43-3.49,30.7-4.77.17,0,.34-.06.48-.06a5.44,5.44,0,0,1,.57,0,.68.68,0,0,1,.34.06,47.52,47.52,0,0,1,4.85-.68c.74-.08,1.48-.14,2.21-.23q17-1.87,33.91-2.89c3.18-.2,6.35-.37,9.53-.51,8.12-.4,16.26-.65,24.38-.8,4.45-.08,8.9-.14,13.33-.14,6.36,0,12.68.09,19,.23-1.36,2.3-2.78,4.57-4.2,6.84-1,1.64-2.07,3.29-3.12,4.93-1.9,2.93-3.83,5.79-5.79,8.66-3.63,5.28-7.43,10.47-11.35,15.55-1.25,1.61-2.5,3.2-3.77,4.79h0c-.23.28-.46.57-.68.82q-2.77,3.45-5.68,6.79-4.8,5.57-9.9,10.89c-1,1.08-2.07,2.16-3.12,3.21-2.7,2.72-5.48,5.36-8.29,8l2.61.11-2.61-.11c-.45.42-.9.85-1.39,1.28Zm15.1-.71q4.93.16,9.87.26Q540.55,714.86,535.61,714.69Zm217.16-35a5.59,5.59,0,0,1-.48.42c-.31.26-.62.48-.93.71l-1,.68c-.62.43-1.25.85-1.87,1.25l-.23.14c-.51.34-1,.65-1.59,1-.79.48-1.56.93-2.38,1.36a122.69,122.69,0,0,1-17.08,7.66c-5.53,2-11.15,3.8-16.8,5.39-8.11,2.27-16.34,4.14-24.6,5.79-8.06,1.62-16.11,3-24.23,4.17s-16.26,2.16-24.4,3c-2.67.28-5.33.54-8,.79q-8,.72-16.09,1.28l-8.05.51c-6,.34-12,.59-18,.79-1.08,0-2.18.09-3.29.12l-3,.08c2.47-3,4.94-6.07,7.18-9.28.31-.39.65-.79,1-1.22q7.23-9.74,13.9-19.86c.25-.37,1.47-2.27,1.84-2.83q4.21-6.52,8.23-13.2c4.37-7.29,8.51-14.7,12.48-22.19,7.55.66,15.1,1.42,22.65,2.36.56.06,1.1.17,1.67.25,3.38.26,6.72.77,10,1.25q6.44.95,12.86,2c5.76,1,11.52,2,17.25,3.29l9.28,2h.19c.2,0,.43,0,.63.06a.87.87,0,0,1,.74.34c6.61,1.7,13.19,3.46,19.66,5.62a3.47,3.47,0,0,1,1.73.76,25.16,25.16,0,0,1,4.79,1.59c1.4.51,2.79,1,4.18,1.59a124.23,124.23,0,0,1,11.52,5.25c1.47.76,2.92,1.59,4.34,2.47a51.26,51.26,0,0,1,5.47,3.74c.51.4.65.57.46.8Z"/><path class="cls-9" d="M794,572.06a17.59,17.59,0,0,0-3.6-9.59,42,42,0,0,0-10.81-10.07A116.36,116.36,0,0,0,757.14,541c-4.34-1.73-8.76-3.32-13.19-4.74-6.78-2.18-13.65-4.05-20.57-5.73q-13-3.19-26.1-5.56c-5.34-1-10.67-1.9-16-2.69a2.69,2.69,0,0,1-.49,0h-.28a4.07,4.07,0,0,1-.6-.06,13.46,13.46,0,0,1-1.36-.25l-4.76-.77c-.94-.11-1.85-.26-2.78-.4-.37-.05-.71-.11-1.08-.14-3.69-.45-7.41-.88-11.1-1.36-1.07-.14-2.15-.23-3.23-.34a31,31,0,0,1-3.21-.46c-7.18-.65-14.33-1.39-21.5-2-1-.09-2-.17-3-.23-6.19-.48-12.37-.91-18.56-1.22-3-.14-6-.28-8.93-.45-2.27-.12-4.52-.23-6.79-.31-5.16-.2-10.32-.32-15.49-.43-1.93,0-3.86-.09-5.76-.11h0s3.55-14.25,5-21.45c1.08-5.39,2-10.81,2.84-16.26.53-3.63,1-7.29,1.41-10.95.43-3.83.77-7.66,1-11.52q.38-6.18.51-12.35.12-8.25-.49-16.51c-.25-3.63-.62-7.23-1.07-10.87a137,137,0,0,0-2.7-14.66,95.65,95.65,0,0,0-3.43-11.47h-.23a.33.33,0,0,0-.23.06c-.22.09-.45.2-.68.28a122.15,122.15,0,0,0-17.93,9.54c-.31.2-.68.37-.82.79a180.64,180.64,0,0,1,2.1,26.19A259.46,259.46,0,0,1,555.07,462c-1.3,9.36-3,18.67-5.11,27.86-1.81,8-3.91,15.92-6.24,23.78-5.64.06-11.26.23-16.91.42-7.49.26-15,.6-22.47,1.08-6.61.43-13.22.85-19.8,1.42-8.57.74-17.14,1.59-25.65,2.64Q455.81,525.54,453,532q-4.26,9.63-8.06,19.44a1.35,1.35,0,0,0,.34-.06c10-1.41,19.95-2.58,30-3.57,2.87-.29,5.73-.63,8.63-.88,7.09-.6,14.24-1,21.36-1.45,9.25-.59,18.53-1,27.81-1.25h.34c7.91-.22,15.8-.34,23.72-.34H563c4.52,0,9,.06,13.54.15,5.11.08,10.24.28,15.35.45h.14c4.91.17,9.79.34,14.7.59,3.77.18,7.54.46,11.29.74l2.41.17c5.65.4,11.29.83,16.91,1.25,1.39.11,2.75.31,4.14.43,7.47.65,14.93,1.5,22.36,2.44q5,.63,10,1.3c7,1,14,2.13,21,3.35,6.69,1.16,13.39,2.5,20,4,5.84,1.33,11.63,2.78,17.42,4.34,7.58,2,15,4.46,22.36,7.18A137.63,137.63,0,0,1,773,578.7a67.21,67.21,0,0,1,11.52,7.8,30.72,30.72,0,0,1,7.89,9.73,35.44,35.44,0,0,1,1.59,4.83c0-3.21.06-6.42.06-9.62v-14.3c0-1.73,0-3.46,0-5.19Z"/><path class="cls-6" d="M605.43,344.25a26.13,26.13,0,0,1-3.43-1.16,2.27,2.27,0,0,1,0-.45,15.53,15.53,0,0,1,3.89,1.78Z"/><path class="cls-6" d="M601.43,342.86l.15.09h0a.34.34,0,0,1-.29-.09Z"/><path class="cls-6" d="M462.58,429.71a.39.39,0,0,1-.09.17h0s-.08.09-.11.09v-.06h0a.52.52,0,0,1,.11-.17.15.15,0,0,0,.09,0Z"/><path class="cls-6" d="M468.73,421.88a1,1,0,0,1-.17.14.65.65,0,0,1-.25.12v-.26h0a.69.69,0,0,1,.11-.2l.17-.17a.7.7,0,0,1,.23-.11v.28a.22.22,0,0,1-.09.17v0Z"/><path class="cls-11" d="M471.09,418.7H471l-.05.06a3,3,0,0,1,.22-.28v.08a.2.2,0,0,1-.08.17Z"/><path class="cls-11" d="M472.28,416.89a.52.52,0,0,1,.11-.17.11.11,0,0,0,.09,0,.08.08,0,0,1,0,.08.11.11,0,0,1,0,.09l-.06.06-.11.05v-.08Z"/><path class="cls-12" d="M578.31,332.28a.47.47,0,0,1,.62.23c-.25.05-.51.11-.62-.23Z"/><path class="cls-6" d="M507.52,379.27l.25-.23v0a.3.3,0,0,1,0,.15h0a.27.27,0,0,1-.17,0Z"/><path class="cls-6" d="M509.28,377.51l.28-.09a.35.35,0,0,1-.08.26c-.09.05-.26,0-.37,0a.52.52,0,0,1,.2-.19Z"/><path class="cls-6" d="M510.38,376.77a.37.37,0,0,1-.08.17h-.17a2.92,2.92,0,0,0,.23-.29v.09Z"/><path class="cls-6" d="M525.2,365.05a.43.43,0,0,1-.06.09.44.44,0,0,1-.2.05l.26-.25Z"/><path class="cls-6" d="M524.94,365.19v.06a.41.41,0,0,1-.06.11s0,0-.11,0h-.06c.09-.05.17-.08.26-.14Z"/><path class="cls-2" d="M601.94,342.55c-7.37-3.29-14.78-6.55-22.16-9.87-.28-.15-.59,0-.85-.2-.25,0-.51.11-.62-.23a1.21,1.21,0,0,1-.88-.08,56.89,56.89,0,0,0-19.8-2.19,83.1,83.1,0,0,0-25.77,5.85c-2.61,1-5.16,2.1-7.69,3.29-.62.31-1.24.59-1.87.91s-1.45.73-2.18,1.1c-1,.48-1.93,1-2.9,1.53a161.59,161.59,0,0,0-14.64,9.11c-1,.68-2,1.39-2.95,2.07l-.57.43c-2.32,1.7-4.59,3.43-6.86,5.22-5.62,4.45-11,9.22-16.2,14.19a332.86,332.86,0,0,0-39.1,45.22l-.91,1.28h0s0,.11-.06.14a.18.18,0,0,1-.14.06l-3.15,4.51q-2.64,3.75-5.19,7.57c-1.62,2.42-3.21,4.88-4.79,7.32-1.25,2-2.47,3.92-3.69,5.88-1.08,1.76-2.16,3.52-3.21,5.28-1.5,2.49-3,5-4.43,7.54-.73,1.28-1.44,2.53-2.15,3.8a3,3,0,0,1-.29.43.94.94,0,0,1-.11.43c-.06.08-.11.19-.17.28-.68,1.19-1.33,2.41-2,3.6-2.46,4.54-4.9,9.11-7.23,13.71-1,1.95-2,3.88-2.92,5.84q-7.75,15.87-14.36,32.2-3.53,8.68-6.7,17.48c-1.1,3.12-2.21,6.24-3.29,9.37-1.95,5.78-3.74,11.63-5.5,17.47-.71,2.42-1.42,4.83-2.1,7.24a.39.39,0,0,1-.06.17c-1,3.8-2,7.6-3,11.43q-1.28,5.16-2.44,10.36c-.65,3-1.25,5.93-1.84,8.91-.14.71-.28,1.42-.4,2.13l-.17.85a1,1,0,0,1-.06.31l-.34,1.7c-.85,4.66-1.61,9.31-2.27,14-.65,4.51-1.22,9.05-1.67,13.59-.11,1-.2,2-.28,3V637c-.09.77-.12,1.34-.17,1.88-.2,2.52-.4,5.05-.54,7.57s-.26,5.08-.34,7.61c0,.34,0,.65,0,1-.14,4.88-.17,9.76,0,14.61.14,4.6.4,9.19.82,13.76s1,9.14,1.79,13.68c.37,2.21.82,4.42,1.28,6.61a123.07,123.07,0,0,0,6.64,21.68c.2.48.39,1,.62,1.47s.43,1,.65,1.45c.51,1.13,1.05,2.27,1.59,3.37.94,1.85,1.9,3.66,2.95,5.42a69.74,69.74,0,0,0,10.25,13.4c1.05,1.07,2.12,2.09,3.26,3.06a53.39,53.39,0,0,0,6.72,5,4.78,4.78,0,0,1,1.31.88,1,1,0,0,1,.11.2c.23-.06.4,0,.46.23a15.41,15.41,0,0,1,2.52,1.22l13.59,6,7.78,3.4.34-.28c-.86-.51-1.71-1-2.53-1.56s-1.67-1.19-2.47-1.82a66,66,0,0,1-16.4-19.23,93.3,93.3,0,0,1-6.64-14.13,3.45,3.45,0,0,0-.14-.34A128.14,128.14,0,0,1,379.76,713c-.74-3.69-1.31-7.41-1.82-11.15,0-.26-.09-.54-.11-.8-.26-1.84-.46-3.68-.66-5.53-.28-2.72-.51-5.42-.65-8.14,0-.68-.08-1.33-.11-2v-.51c-.14-3.77-.29-7.52-.26-11.29v-2.64c.09-3,.17-5.9.29-8.85.05-1.48.14-2.95.22-4.43s.17-3,.29-4.42q.58-7.71,1.53-15.41c.23-1.87.48-3.72.74-5.59q.42-3.1.93-6.21c.26-1.65.54-3.26.8-4.88.31-1.85.65-3.69,1-5.53.43-2.33.91-4.66,1.36-7,.54-2.64,1.11-5.31,1.7-8,.54-2.35,1.11-4.68,1.68-7,.62-2.58,1.3-5.16,2-7.74.17-.6.35-1.19.54-1.79s.37-1.19.51-1.79a35.78,35.78,0,0,1,1-3.74,1.07,1.07,0,0,0,.28-.43,46.63,46.63,0,0,1,2.33-8.51l1.19-3.74c.54-1.76,1.08-3.49,1.62-5.25.45-1.45.9-2.87,1.39-4.29.19-.57.36-1.13.56-1.67.26-.71.51-1.45.77-2.16,1.08-3,2.13-6,3.21-9,.45-1.22.9-2.47,1.39-3.69q2.37-6.3,4.93-12.51c.48-1.2,1-2.36,1.48-3.52l1.19-2.81,2.89-6.64c.77-1.73,1.54-3.46,2.33-5.19.6-1.34,1.19-2.64,1.82-4,1.64-3.52,3.32-7,5.05-10.5.31-.59.65-1.19,1-1.78s.68-1.17,1-1.79a356.2,356.2,0,0,1,17.17-31.24c.54-.91,1.1-1.81,1.64-2.72a73.81,73.81,0,0,1,4-6.27c.9-1.22,1.73-2.5,2.58-3.78s1.64-2.55,2.52-3.8c1.73-2.52,3.35-5.11,5.08-7.63.23-.31.46-.65.68-1,1.17-1.65,2.36-3.3,3.52-4.94v-.06h0a.52.52,0,0,1,.11-.17.15.15,0,0,0,.09,0c1.67-2.27,3.38-4.54,5.08-6.81a3.53,3.53,0,0,1,.25-.28l.12-.11c.11-.12.2-.23.31-.34v-.26h0a1.1,1.1,0,0,1,.11-.2l.17-.17a.7.7,0,0,1,.23-.11.85.85,0,0,0,.11-.14c.66-.83,1.34-1.65,2-2.47.08-.09.14-.2.23-.29a.41.41,0,0,1,.05-.17c0-.05.06-.08.06-.14a1.74,1.74,0,0,1,.23-.25l.05-.06c.29-.25.66-.48.71-.91v-.08a.19.19,0,0,1,.12-.17.1.1,0,0,0,.08,0A4.12,4.12,0,0,0,473,416s.06-.09.11-.12a3.9,3.9,0,0,0,.32-.42,6.79,6.79,0,0,0,.39-.6c.12-.14.2-.31.32-.45l.22-.31,1.53-1.88q5.37-6.56,11.07-12.82c3-3.29,6-6.47,9.16-9.62l1.62-1.65c1-1,2.07-1.95,3.12-2.92.43-.37.83-.76,1.25-1.16l.26-.26c1.3-1.25,2.64-2.49,3.94-3.74l.09-.09c.34-.31.73-.59,1.1-.88l.26-.22.08-.09c.4-.42.83-.82,1.22-1.25a1,1,0,0,1,.2-.2,1.11,1.11,0,0,1,.29-.08.49.49,0,0,0,.31-.14L510,377a1.2,1.2,0,0,0,.11-.17,1.94,1.94,0,0,0,.23-.29c1.05-.93,2.13-1.87,3.2-2.78l.49-.42c1.05-.88,2.1-1.76,3.17-2.61,2.42-1.93,4.88-3.81,7.41-5.56.08-.06.17-.09.25-.15h0l.26-.28c.57-.43,1.14-.85,1.73-1.25,1.16-.82,2.33-1.64,3.49-2.44l1.76-1.16h0c.6-.4,1.19-.77,1.79-1.14,1.81-1.13,3.63-2.24,5.47-3.29,2-1.16,4.06-2.3,6.13-3.35a110.61,110.61,0,0,1,19.35-7.88c.51-.15,1-.29,1.53-.46a84.18,84.18,0,0,1,10.84-2.27c2.07-.28,4.17-.48,6.27-.56,1.59-.09,3.18-.09,4.77-.06.54,0,1,0,1.59.06,1.59.08,3.18.25,4.77.48a59.06,59.06,0,0,1,6.52,1.27h.17c.06,0,.09.06.14.09s.09,0,.15.06a.9.9,0,0,1,.28.11,2.27,2.27,0,0,1,0-.45.41.41,0,0,0-.12-.09Z"/><path class="cls-5" d="M578.31,332.28c-.11-.45-.54-.51-.88-.65q-9.54-4.26-19.12-8.46c-1.71-.74-3.35-1.62-5.11-2.21a.71.71,0,0,1-.62,0,52.92,52.92,0,0,0-13.51-2.44,64.47,64.47,0,0,0-12.57.56,90.12,90.12,0,0,0-10.16,2.08,100.29,100.29,0,0,0-18.75,7.09c-2.33,1.13-4.57,2.44-6.84,3.66-.77.4-1.56.77-2.3,1.19a181.29,181.29,0,0,0-18.89,12.77c-1.51,1.16-3.07,2.3-4.46,3.57a31,31,0,0,1-2.78,2.36l-.6.4h0c-.17.14-.34.28-.48.42h0a1,1,0,0,1-.25.51.56.56,0,0,1-.23.12h-.17a.34.34,0,0,1-.14,0c-.06,0-.09.05-.12.08-.51.37-.82,1-1.27,1.39a.71.71,0,0,1-.23.14c-1.25.66-2,1.85-3.12,2.64a32.89,32.89,0,0,0-2.95,2.73c-4.88,4.48-9.51,9.25-14.07,14.07-1.39,1.48-2.67,3.06-4,4.6-.77.88-1.65,1.64-2.42,2.52-2.07,2.38-4.08,4.8-6.12,7.21-1.51,1.79-3,3.6-4.32,5.5-1.08,1.51-2.35,2.84-3.49,4.32-3.49,4.45-6.78,9.05-10.07,13.64S402,421.31,398.94,426c-2.78,4.17-5.34,8.48-8,12.74-1,1.59-1.84,3.23-2.81,4.79-1.7,2.73-3.26,5.51-4.73,8.34a22.85,22.85,0,0,0-2.19,3.69c-1.47,2.58-2.86,5.22-4.14,7.92-.4.85-1,1.61-1.42,2.47-1.19,2.41-2.38,4.82-3.6,7.2-3.1,6-5.82,12.17-8.63,18.3-3.06,6.64-5.76,13.42-8.45,20.23-1.82,4.6-3.66,9.22-5.11,14-.23.77-.68,1.48-1,2.24-1.39,4.09-2.8,8.18-4.14,12.29-1.25,3.77-2.41,7.58-3.52,11.41q-1.61,5.49-3.09,11c-1.93,7.15-3.69,14.36-5.19,21.59-.4,1.93-.77,3.86-1.16,5.79-1.28,6.56-2.42,13.17-3.35,19.78q-1.32,9.45-2.16,19c-.06.6-.08,1.16-.14,1.76v1.62h0v-1.62c-.28,3.46-.48,6.95-.63,10.44-.17,4-.19,8-.22,12,0,1.9.2,3.8.17,5.7,0,2.92.23,5.81.4,8.71.05,1.08.11,2.13.22,3.2h0a3.68,3.68,0,0,0,.06.57c.34,2.78.57,5.59,1,8.37s.74,5.39,1.25,8.09a92.26,92.26,0,0,0,2.56,11.09c.36,1.14.56,2.33.88,3.49.68,2.56,1.5,5,2.41,7.52,1.3,3.55,2.78,7,4.42,10.41a75.17,75.17,0,0,0,9.22,14.62,58.24,58.24,0,0,0,11.86,11.23c.2.12.37.26.57.37a9.14,9.14,0,0,0,1,.62c.17.12.37.23.57.35.63.39,1.25.79,1.85,1.22h0a6.59,6.59,0,0,0,.54.42.14.14,0,0,0,.05.09.92.92,0,0,0,.48.22q11.63,5.16,23.3,10.3a1.53,1.53,0,0,0,1,.26,1.2,1.2,0,0,0-.11-.2,4.37,4.37,0,0,0-1.31-.88,56.46,56.46,0,0,1-6.72-5c-1.14-1-2.21-2-3.26-3.07a69.68,69.68,0,0,1-10.25-13.39c-1.05-1.76-2-3.57-3-5.42-.56-1.1-1.08-2.21-1.61-3.35-.23-.48-.43-1-.66-1.44s-.42-1-.62-1.48a123.65,123.65,0,0,1-6.64-21.68c-.48-2.18-.91-4.39-1.28-6.61-.79-4.54-1.36-9.1-1.79-13.67s-.68-9.17-.82-13.76c-.14-4.88-.11-9.76,0-14.61,0-.35,0-.66,0-1,.08-2.52.2-5.08.34-7.6s.34-5,.54-7.58c.06-.54.11-1.1.17-1.87v-.23c.08-1,.2-2,.28-3,.48-4.54,1.05-9.05,1.68-13.59.68-4.69,1.42-9.34,2.27-14l.34-1.7a1.43,1.43,0,0,1,0-.32l.17-.85c.15-.71.26-1.42.4-2.13.6-3,1.19-5.93,1.85-8.9q1.14-5.21,2.44-10.36c.93-3.83,1.92-7.63,3-11.43a.19.19,0,0,1,.06-.17c.68-2.42,1.36-4.83,2.1-7.24,1.76-5.87,3.55-11.69,5.51-17.48,1-3.12,2.15-6.24,3.29-9.36q3.18-8.8,6.69-17.48,6.6-16.34,14.36-32.2c1-2,1.93-3.92,2.92-5.85q3.5-6.88,7.24-13.7c.65-1.22,1.33-2.41,2-3.6.06-.09.12-.2.17-.29a.58.58,0,0,0,.12-.42c.08-.15.2-.29.28-.43.71-1.28,1.45-2.52,2.16-3.8,1.44-2.53,2.92-5.05,4.42-7.55,1.05-1.76,2.13-3.52,3.21-5.28,1.22-1.95,2.44-3.91,3.69-5.87,1.56-2.47,3.18-4.91,4.79-7.32s3.44-5,5.19-7.57l3.15-4.52v-.08a.09.09,0,0,1,0-.06.22.22,0,0,1,.14-.05h0c.32-.43.6-.86.91-1.28a334.25,334.25,0,0,1,39.1-45.23c5.19-5,10.58-9.73,16.2-14.18,2.24-1.79,4.54-3.52,6.87-5.22l.56-.43c1-.71,2-1.39,3-2.07a160.75,160.75,0,0,1,14.64-9.11l2.89-1.53,2.18-1.11c.63-.31,1.25-.59,1.88-.91q3.78-1.79,7.69-3.29A83.15,83.15,0,0,1,557.74,330a56.88,56.88,0,0,1,19.8,2.18,1.17,1.17,0,0,0,.88.09h0ZM326,662.31v0Z"/><path class="cls-7" d="M435.79,420.24a.38.38,0,0,1,.14-.06c0,.06,0,.11-.05.14a.22.22,0,0,1-.14.06v-.09a.08.08,0,0,1,0-.05Z"/><path class="cls-7" d="M460.56,352.82a.74.74,0,0,1,.34-.17,1.16,1.16,0,0,1,.31,0h0a1,1,0,0,1-.25.51.45.45,0,0,1-.23.11h-.17a.53.53,0,0,1-.14,0h0a.93.93,0,0,1,.17-.43Z"/><path class="cls-9" d="M551.81,320.36c-5.76-2.58-11.58-5.08-17.34-7.71a55.52,55.52,0,0,0-20.65-5.2h-7.61A69.6,69.6,0,0,0,495.4,309a108.31,108.31,0,0,0-29.7,11.52,176.66,176.66,0,0,0-26.59,18.21,26.18,26.18,0,0,0-3.12,2.7.4.4,0,0,0-.2.17v.08h-.11c-.23.2-.48.37-.71.57a275.94,275.94,0,0,0-26,25.56,369.25,369.25,0,0,0-26.87,34A452.39,452.39,0,0,0,349,457.06q-9.87,19.41-18,39.64a442.45,442.45,0,0,0-15,42.9c-.45,1.62-1,3.21-1.5,4.82-3.41,12-6.36,24.15-8.66,36.43-2,10.42-3.54,20.86-4.57,31.41-.76,7.66-1.27,15.33-1.27,23,0,3.49,0,7,0,10.5h0c.05.48.05,1,.08,1.45,0,.74,0,1.47,0,2.21,0,4.26.4,8.49.8,12.71a173.08,173.08,0,0,0,3.23,20.52,116,116,0,0,0,8.26,24.6,73.46,73.46,0,0,0,15.89,22.5,50.67,50.67,0,0,0,13.3,9.19c4.4,2.07,8.86,4,13.28,6,3,1.33,6.05,2.78,9.17,4l-.54-.43h0c-.6-.45-1.22-.85-1.85-1.25-.2-.11-.37-.22-.56-.34s-.66-.39-1-.62-.37-.26-.56-.37a57.51,57.51,0,0,1-11.86-11.24,74.38,74.38,0,0,1-9.23-14.61c-1.61-3.4-3.12-6.86-4.42-10.41-.34-.31-.68-.65-1-1,.34.35.65.66,1,1-.91-2.47-1.73-5-2.41-7.52-.32-1.16-.51-2.35-.88-3.49a98.9,98.9,0,0,1-2.56-11.09c-.51-2.67-.88-5.39-1.24-8.09s-.63-5.59-1-8.37a3.68,3.68,0,0,0-.06-.57v0c-.11-1-.14-2.12-.22-3.2-.15-2.9-.4-5.79-.4-8.71,0-1.9-.2-3.81-.17-5.71,0-4,.06-8,.23-12,.14-3.49.34-6.95.62-10.44.06-.6.09-1.16.14-1.76q.86-9.5,2.16-19c.91-6.64,2.07-13.22,3.35-19.78q.56-2.9,1.16-5.79c1.5-7.26,3.26-14.44,5.19-21.59,1-3.69,2-7.38,3.09-11,1.11-3.83,2.3-7.63,3.52-11.4,1.34-4.12,2.76-8.2,4.15-12.29.25-.76.7-1.47,1-2.24,1.48-4.74,3.29-9.36,5.11-14,2.69-6.78,5.39-13.59,8.45-20.23,2.81-6.13,5.54-12.31,8.63-18.3,1.22-2.38,2.44-4.79,3.6-7.21.43-.85,1-1.58,1.42-2.46,1.28-2.7,2.67-5.34,4.14-7.92a22.85,22.85,0,0,1,2.19-3.69c1.47-2.84,3-5.62,4.74-8.34,1-1.56,1.84-3.23,2.8-4.8,2.64-4.25,5.2-8.56,8-12.73,3.09-4.66,6.07-9.34,9.33-13.88s6.61-9.19,10.07-13.65c1.14-1.44,2.42-2.78,3.49-4.31,1.37-1.9,2.78-3.74,4.32-5.5,2-2.42,4.05-4.83,6.13-7.21.76-.88,1.61-1.65,2.41-2.53,1.33-1.53,2.61-3.12,4-4.59,4.57-4.83,9.19-9.59,14.07-14.07a38,38,0,0,1,2.95-2.73c1.11-.79,1.87-2,3.12-2.64a1,1,0,0,0,.23-.14c.48-.37.77-1,1.28-1.39a.44.44,0,0,1,.11-.08h0a.93.93,0,0,1,.17-.43.41.41,0,0,1,.34-.17,1.16,1.16,0,0,1,.31,0c.17-.14.34-.29.48-.43h0c.23-.14.4-.28.6-.39a32.71,32.71,0,0,0,2.78-2.36c1.42-1.28,2.95-2.41,4.46-3.57a181.33,181.33,0,0,1,18.89-12.77c.74-.46,1.53-.8,2.3-1.19,2.27-1.22,4.51-2.53,6.84-3.66a100.32,100.32,0,0,1,18.75-7.1,87.93,87.93,0,0,1,10.16-2.07,66.91,66.91,0,0,1,12.57-.57A54.13,54.13,0,0,1,552.4,321a.81.81,0,0,0,.63,0c-.37-.4-.94-.4-1.39-.63Z"/><path class="cls-9" d="M460.73,351.15l-.11-.09S460.7,351.12,460.73,351.15Z"/><path class="cls-9" d="M459.94,350.67c.17.08.31.17.45.25Z"/><path class="cls-12" d="M513.82,307.45h-7.61c0-.08-.08-.17-.11-.28h7.8A1.36,1.36,0,0,1,513.82,307.45Z"/><path class="cls-7" d="M435.71,341.67h-.06v-.11h.11v.08h-.05Z"/><path class="cls-13" d="M752.58,679.9c.73-.56.73-.62,0-1.22a47.3,47.3,0,0,0-5.48-3.74,115.36,115.36,0,0,0-20-9.31,33.32,33.32,0,0,0-4.8-1.59,3.52,3.52,0,0,0-1.73-.76c-6.47-2.16-13-3.92-19.66-5.62a4.22,4.22,0,0,1-1.56-.43c-3.09-.68-6.19-1.36-9.28-2-5.73-1.25-11.46-2.33-17.25-3.29q-6.42-1.06-12.85-2c-3.35-.48-6.7-1-10.07-1.24-.57-.09-1.11-.2-1.68-.26q-17.7-2.17-35.52-3.35c-7.75-.54-15.52-.93-23.27-1.25q-15.23-.59-30.44-.56-18.9,0-37.74.9c-14.52.71-29,1.82-43.44,3.44-2.35.25-4.73.42-7.09.91a4,4,0,0,0-1.42,0c-10.3,1.28-20.54,2.84-30.73,4.77-6,1.13-12,2.38-18,3.8l-.11.2s-1.53,22.13,1.87,43.75q8.82,2.08,17.68,3.75c5.28,1,10.58,1.93,15.92,2.69,7.46,1.08,14.95,2.16,22.47,3,7.29.77,14.58,1.56,21.9,2.07,4.34.32,8.66.68,13,.94q9.62.56,19.23.91c5.85.2,11.72.37,17.57.45q14,.18,28.11-.11,13.54-.3,27-1.05c10.76-.6,21.45-1.45,32.18-2.55,16.31-1.71,32.54-4,48.63-7.18a276.36,276.36,0,0,0,41.42-11.21,118.29,118.29,0,0,0,17.08-7.66,60.1,60.1,0,0,0,8-5.17Z"/><path d="M662.76,959.55c-1.93,0-3.85-.11-5.78-.16C414.09,952.6,219.4,765.51,219.4,535.64S414.09,118.68,657,111.89c1.93,0,3.85-.13,5.78-.16,2.62,0,5.24-.09,7.87-.09a479.35,479.35,0,0,1,84,7.4,502.85,502.85,0,0,0-167.9-32.93c-2.29-.06-4.57-.15-6.87-.18-1.92,0-3.83-.1-5.76-.1-264.38,0-478.7,201.39-478.7,449.81S309.72,985.45,574.1,985.45c1.93,0,3.84-.08,5.76-.1,2.3,0,4.58-.12,6.87-.18a502.61,502.61,0,0,0,167.9-32.94,478.39,478.39,0,0,1-84,7.41C668,959.64,665.38,959.59,662.76,959.55Z"/></svg>