<svg id="Layer_1" data-name="Layer 1" xmlns="http://www.w3.org/2000/svg" xmlns:xlink="http://www.w3.org/1999/xlink" viewBox="0 0 440 358"><defs><style>.cls-1{fill:url(#linear-gradient);}.cls-2{fill:#00c0f4;}.cls-3{fill:#fff515;}.cls-4{fill:#f0b90b;}.cls-5{fill:#fff;}</style><linearGradient id="linear-gradient" x1="13.91" y1="155.9" x2="300" y2="155.9" gradientUnits="userSpaceOnUse"><stop offset="0" stop-color="#007785"/><stop offset="1" stop-color="#0071bc"/></linearGradient></defs><circle class="cls-1" cx="156.95" cy="155.9" r="143.05"/><path class="cls-2" d="M68.25,152.7c0-55,47.46-99.59,106-99.59a110.84,110.84,0,0,1,49.51,11.54,117.06,117.06,0,0,0-62.12-17.6c-62.1,0-112.44,47.3-112.44,105.65S99.53,258.35,161.63,258.35a117.06,117.06,0,0,0,62.12-17.59,111,111,0,0,1-49.51,11.53C115.71,252.29,68.25,207.7,68.25,152.7Z"/><path class="cls-3" d="M226.43,108.76c0-2.58-.05-5.17-.06-7.75a12.65,12.65,0,0,0-4.93-10.28,40.06,40.06,0,0,0-8.07-4.9,98.61,98.61,0,0,0-17.58-6.26,129.36,129.36,0,0,0-19.65-3.68c-4.15-.43-8.31-.68-12.48-.71-3.78,0-7.55.23-11.32.57-3.32.3-6.62.77-9.91,1.34-3,.52-6,1.19-8.92,1.93s-6,1.62-9,2.62a80.06,80.06,0,0,0-10.4,4.23A32.83,32.83,0,0,0,105,92a11.79,11.79,0,0,0-3.52,8.36c0,2.35,0,4.69-.06,7-.07,3.39-.08,6.78-.16,10.17-.11,4.3,0,8.62,0,12.92,0,7.08,0,14.15.12,21.23.09,4.91.07,9.82,0,14.73a61.83,61.83,0,0,0,2.34,17.37,54.23,54.23,0,0,0,10.47,20.28,64.69,64.69,0,0,0,12.23,11.14,147.38,147.38,0,0,0,14,8.62c4.2,2.35,8.46,4.62,12.67,7,3.51,1.95,7,4,10.36,6.15a.77.77,0,0,0,1,0c.57-.42,1.16-.8,1.76-1.16,1.77-1,3.57-2.05,5.33-3.11,3.51-2.1,7.12-4,10.71-6,5-2.72,10-5.49,14.83-8.57a81.21,81.21,0,0,0,11-8.35,56.16,56.16,0,0,0,6.48-6.88A52,52,0,0,0,223.94,184c1.16-4.42,2.31-8.85,2.41-13.44.14-6.27.17-12.53.17-18.8C226.51,137.43,226.61,123.09,226.43,108.76ZM149.92,222.07m-18-10.39a93.53,93.53,0,0,1-10.09-8.22,46.67,46.67,0,0,1-4.37-5,23.48,23.48,0,0,1-2.06-3l-.32-.57a.59.59,0,0,1,.48.41,73.53,73.53,0,0,0,13.13,11.06c5.19,3.47,10.64,6.47,16.09,9.49,5.86,3.24,11.78,6.38,17.47,9.93,1.7,1.06,1.7,1,3.4,0,4.55-2.89,9.28-5.47,14-8.08,6-3.32,12.1-6.48,17.82-10.28a72.92,72.92,0,0,0,9-6.63,51.06,51.06,0,0,0,5.79-5.6h0a.69.69,0,0,1,.41-.44c.05.27-.12.42-.26.59a63.5,63.5,0,0,1-4.52,6,66,66,0,0,1-8.29,7.65,61.52,61.52,0,0,1-5.34,3.67c-4.07,2.62-8.31,5-12.52,7.36-1.35.77-2.72,1.53-4.08,2.24-1.13.6-2.22,1.3-3.37,1.87-.93.46-1.87,1.05-2.8,1.54s-1.68,1-2.53,1.49a19,19,0,0,0-3.29,1.85c-1.33,1.09-2.32,1.18-3.62,0Zm10.76-91.54a37.08,37.08,0,0,0-3-4.46.62.62,0,0,1,0-1c.51-.49,1-1,1.53-1.46.88-.75,1.35-.66,1.9.36a19.54,19.54,0,0,1,1.72,4.84,11.8,11.8,0,0,1-.26,5.51A22.79,22.79,0,0,0,142.7,120.14Zm77.71,35.4A61.14,61.14,0,0,1,218,172.43a57.77,57.77,0,0,1-5.37,12.25c-3.36,6-8.3,10.45-13.63,14.55-2.75,2.12-5.74,3.9-8.68,5.75-.5.32-.64.15-.6-.37a3.13,3.13,0,0,0-.41-1.8c-.88-1.63-1.57-3.35-2.4-5a47.2,47.2,0,0,0-2.83-4.41.78.78,0,0,0-.26-.28c-1.35-.69-2.46-1.76-3.77-2.5-1.88-1.06-3.89-1.88-5.8-2.88a6.33,6.33,0,0,1-2.15-1.91,1.21,1.21,0,0,1-.18-1,22,22,0,0,1,1.19-4.27c.41-1,.37-2.19.73-3.25.54-1.62,1.09-3.25,1.62-4.88a1.08,1.08,0,0,1,.5-.68c1.18-.57,1.28-1.68,1.4-2.77a11.21,11.21,0,0,0,0-1.64.68.68,0,0,0-.17-.58c-.71-.54-.51-1.21-.32-1.91a21.78,21.78,0,0,0,.76-4.3,1.55,1.55,0,0,1,.72-1.38,3.5,3.5,0,0,0,1.43-2.66c.07-.44-.25-.63-.57-.74a11.28,11.28,0,0,1-3.79-2.43,11.24,11.24,0,0,0-5.27-2.56c.75-.4,1.47,0,2.16-.3a5.62,5.62,0,0,0-2.22-1.06,9.64,9.64,0,0,0-6.51.1c-.11,0-.24.16-.35,0s0-.29,0-.43.34-.51.09-.7-.47.1-.69.21a9.64,9.64,0,0,0-4.84,4.9.76.76,0,0,1-.15.17,17,17,0,0,1-.34-2.34,9.38,9.38,0,0,0-.46,3,1.82,1.82,0,0,1-1,1.67,2.67,2.67,0,0,0-1.41,2.22l1.34-.73c.19.21.06.4,0,.58a12,12,0,0,0-.15,6.86,1.82,1.82,0,0,1-.06,1.13,3.67,3.67,0,0,0,.15,3.17,2.13,2.13,0,0,0,1.73,1.41,1.21,1.21,0,0,1,1.11,1.12c.35,1.82.45,3.66.75,5.49.24,1.51-.68,2.7-1.8,3.63a3.74,3.74,0,0,1-4.67.54,30.81,30.81,0,0,0-3-1.35c-.87-.39-1.31-1.24-2-1.83-2.11-1.8-1.59-4.12-1.22-6.4.11-.71.12-1.43.18-2.13a34.93,34.93,0,0,0,.24-4c-.06-1.68.25-3.37.11-5.07-.16-2-.13-4.06-.1-6.1,0-1,.4-2,.12-3a3.14,3.14,0,0,1-.17-1.39c0-.23,0-.53.15-.67.8-.79,1.08-1.91,1.72-2.75.79,1.57.62,3.24.65,4.89,0,.64,0,1.42.67,1.7s1.29-.24,1.81-.66a24.58,24.58,0,0,0,3-2.91,10.23,10.23,0,0,0,2.09-2.56,5.14,5.14,0,0,1,1.34-1.52c.73-.63,1.07-1.57,1.93-2.08a6.38,6.38,0,0,0,1.2-1.23c.14-.14.36-.28.27-.52s-.37-.14-.56-.14c-1.62,0-3.22.25-4.85.2a2.33,2.33,0,0,1-2.25-1.23,41.86,41.86,0,0,0-4.51-6.47c-1.23-1.47-2.27-3.11-3.43-4.65a2,2,0,0,1-.13-2.28,13,13,0,0,0,1.43-4.61c.1-.74-.15-1.52-.11-2.28a15.53,15.53,0,0,0-.94-5.42,16.11,16.11,0,0,0-3.1-5.4,1.44,1.44,0,0,0-.63-.45h-.48c-1.17.66-1.88,1.8-2.86,2.66l-.1.11c-.49.46-.82,1.27-1.44,1.38s-1-.77-1.48-1.22-.78,0-1.07.25L127.8,120c-2.71,2.79-5.44,5.56-8.15,8.34-1,1-1,1.17.07,2,.84.7.84.71.06,1.52l-2.84,2.92c-1,1-.94,1.52.18,2.34a16.76,16.76,0,0,0,10.95,3.48,11.74,11.74,0,0,0,5.23-1.11,7.73,7.73,0,0,1,3.92-.78,7.47,7.47,0,0,0,3.68-.89c.35-.2.73-.47,1.17-.2s.16.7.15,1.06a55.77,55.77,0,0,1-.62,7.86,5.54,5.54,0,0,1-1.24,3.38c-.4.41-.33,1.08-.36,1.64a19.09,19.09,0,0,1-1.46,5.57c-.93,2.58-1.53,5.25-2.29,7.87a17.48,17.48,0,0,0-.79,6.69,3.71,3.71,0,0,1-.3,1.91,1.75,1.75,0,0,0-.16,1c.31,1.58.1,3.2.44,4.79a11.36,11.36,0,0,0,.93,2.89,36.07,36.07,0,0,1,2.29,6.55c.61,2,1.28,4,1.81,6a35.74,35.74,0,0,1,.84,9.62c0,.83,0,1.66,0,2.61-1-.54-1.88-1-2.74-1.52a94.5,94.5,0,0,1-13.68-9.48,41.33,41.33,0,0,1-9.26-10.53,52.85,52.85,0,0,1-3.66-7.05c-.65-1.67-1.28-3.34-1.83-5a51.84,51.84,0,0,1-2.64-16.11c0-4.09,0-8.19-.08-12.29,0-2-.26-4-.09-5.94.3-3.54.05-7.09.32-10.62.06-.86.07-1.72.09-2.58a6.52,6.52,0,0,1,3-5.38,50.89,50.89,0,0,1,11.46-6,103.75,103.75,0,0,1,13.17-4.17,50.45,50.45,0,0,1,6.89-1.43h0a.61.61,0,0,1,.47-.14h0c2-.37,3.94-.72,5.94-1,2.22-.25,4.45-.51,6.68-.68s4.37-.32,6.55-.34c3.26,0,6.52,0,9.77.28a120.87,120.87,0,0,1,14.32,2,110.16,110.16,0,0,1,23.56,7.24,28,28,0,0,1,8,4.69,7.42,7.42,0,0,1,2.76,5.39Q220.45,141,220.41,155.54Zm-89.48-17.7c-3.61,1.17-6.84.17-10-1.17a1.77,1.77,0,0,1-.84-.69c-.28-.45-.29-.71.16-1.25s.48-.58.85-1c.58-.68,1.21-1,1.84-.49a33,33,0,0,0,7.63,4.41ZM176,82c1.56.22,3.12.42,4.68.67,2.21.36,4.41.82,6.61,1.21,3,.52,5.81,1.37,8.7,2.12,2.55.66,5,1.61,7.5,2.39,2.18.69,4.26,1.65,6.36,2.53a51.76,51.76,0,0,1,5.42,2.94,12.88,12.88,0,0,1,3.9,3.38c1,1.34,1,2.87,1,4.39.06,1.25-.05,2.51.06,3.76.22,2.5.11,5,.19,7.5a22.83,22.83,0,0,1-.08,2.48,6.88,6.88,0,0,1-2.1-1.09c-7.17-4.28-15-6.84-23-9a125.13,125.13,0,0,0-15.08-3.07,100.69,100.69,0,0,0-12.13-1.11c-3.8-.09-7.6-.08-11.41.16a130.76,130.76,0,0,0-16.25,2.06A120.9,120.9,0,0,0,123,108a64,64,0,0,0-14.35,6.82c-.18.12-.36.26-.54.4-.39.29-.55.06-.64-.36a4.24,4.24,0,0,1,0-.62V108c0-2.16,0-5.18.24-8.21a5.8,5.8,0,0,1,2.08-3.95c.71-.66,1.55-1.2,2.29-1.81a14.54,14.54,0,0,1,2.64-1.78S145.92,77.93,176,82Zm-41.33,3"/><path class="cls-2" d="M136,100.27c-1.05.26-2.09.54-3.13.84a6.63,6.63,0,0,1-1.61.29,3.26,3.26,0,0,1-1.3-.25,3.57,3.57,0,0,1-1.43-1,5.6,5.6,0,0,1-1-1.84,4.68,4.68,0,0,1,0-3.62,4.43,4.43,0,0,1,3-2.05c1.11-.32,2.21-.61,3.33-.89.14.57.28,1.14.43,1.71q-1.62.4-3.24.87a2.58,2.58,0,0,0-.88.4,1.52,1.52,0,0,0-.47.65,3.85,3.85,0,0,0,.18,2.28,3,3,0,0,0,1,1.67,2,2,0,0,0,1.63.07c1-.29,2.06-.57,3.1-.83C135.73,99.11,135.87,99.69,136,100.27Z"/><path class="cls-2" d="M144.47,98.49c-.7.12-1.39.24-2.08.38-.22-1.17-.44-2.34-.67-3.51-1,.2-2,.4-3.05.63.26,1.16.51,2.32.77,3.48l-2.06.47c-.69-2.86-1.37-5.73-2.06-8.59.74-.18,1.48-.35,2.23-.51.24,1.13.49,2.25.74,3.38,1-.22,2.06-.43,3.1-.63-.22-1.14-.44-2.27-.65-3.41l2.24-.4C143.47,92.68,144,95.59,144.47,98.49Z"/><path class="cls-2" d="M154.65,97.23l-2.35.21c-.32-.65-.66-1.3-1-1.94-1.19.12-2.37.27-3.55.43-.17.71-.32,1.41-.48,2.12l-2.24.34q1.13-4.67,2.57-9.31l2.3-.28Q152.43,93,154.65,97.23Zm-4.27-3.47c-.47-.85-.94-1.7-1.42-2.54-.25.93-.49,1.87-.73,2.8Z"/><path class="cls-2" d="M165.18,96.93l-2.06,0c0-1.93.08-3.87.13-5.8q-1,2.9-1.93,5.81L159.2,97q-1.09-2.91-2.29-5.79c.15,2,.31,3.91.45,5.87l-2.12.13c-.21-2.94-.41-5.88-.62-8.82q1.56-.11,3.12-.18c.84,2,1.65,4.08,2.41,6.13q1-3.13,2.07-6.25c1,0,2.08,0,3.13,0C165.29,91,165.24,94,165.18,96.93Z"/><path class="cls-2" d="M175.54,91.67a3.36,3.36,0,0,1-.41,1.33,2.48,2.48,0,0,1-.9.87,2.89,2.89,0,0,1-1.11.36q-.35,0-.75,0a9,9,0,0,1-1,0c-.69,0-1.39-.1-2.08-.13l-.17,3L167,97q.15-4.42.31-8.83c1.46,0,2.92.13,4.37.23a10.4,10.4,0,0,1,1.71.24c.25.07.45.13.61.19a2.87,2.87,0,0,1,.43.25,2.69,2.69,0,0,1,.89,1.13A2.88,2.88,0,0,1,175.54,91.67Zm-2.41-.23a1,1,0,0,0-.28-.88,2.36,2.36,0,0,0-1.3-.35l-2.05-.13-.12,2.2c.71,0,1.42.08,2.13.13a3.2,3.2,0,0,0,.7,0,1,1,0,0,0,.49-.18A.94.94,0,0,0,173.13,91.44Z"/><path class="cls-2" d="M178.42,98l-2.17-.28c.34-2.92.69-5.85,1-8.77.79.09,1.57.19,2.35.3C179.24,92.14,178.83,95.05,178.42,98Z"/><path class="cls-2" d="M189.45,95.54a4.81,4.81,0,0,1-1.87,3.11,5.76,5.76,0,0,1-6.65-1.28,5.07,5.07,0,0,1-.54-3.67,4.43,4.43,0,0,1,1.67-3.16,6.13,6.13,0,0,1,7,1.38A4.51,4.51,0,0,1,189.45,95.54Zm-2.3-.52A3.33,3.33,0,0,0,187,92.8a2.54,2.54,0,0,0-3.4-.66,2.18,2.18,0,0,0-.57.77,4.6,4.6,0,0,0-.35,1.18,3.59,3.59,0,0,0,.16,2.27,2,2,0,0,0,1.51,1,2.07,2.07,0,0,0,1.77-.35A3.44,3.44,0,0,0,187.15,95Z"/><path class="cls-2" d="M197.32,102.33c-.74-.25-1.5-.48-2.25-.71q-.8-3.37-1.79-6.77c-.49,2-1,3.89-1.48,5.84-.7-.19-1.39-.37-2.09-.54l2.13-8.58c.88.22,1.77.45,2.65.69.64,2.14,1.22,4.29,1.75,6.43.52-1.82,1-3.65,1.58-5.47l2.24.7Z"/><path class="cls-4" d="M325.87,145.1a103,103,0,1,1-103,103,103,103,0,0,1,103-103"/><polygon class="cls-5" points="299.23 236.99 314.82 221.46 318.1 218.17 325.89 210.38 352.42 236.99 367.86 221.46 325.89 179.42 283.79 221.46 299.23 236.99"/><rect class="cls-5" x="314.95" y="237.06" width="21.93" height="21.93" transform="translate(-79.92 303.1) rotate(-45)"/><polygon class="cls-5" points="352.42 259.14 325.89 285.68 316.57 276.36 314.85 274.65 299.23 259.14 283.79 274.59 325.89 316.62 367.86 274.59 352.42 259.14"/><rect class="cls-5" x="261.78" y="237.1" width="21.93" height="21.93" transform="translate(-95.53 265.51) rotate(-45)"/><rect class="cls-5" x="368.04" y="237.1" width="21.93" height="21.93" transform="translate(-64.4 340.65) rotate(-45)"/></svg>