<svg id="Layer_1" data-name="Layer 1" xmlns="http://www.w3.org/2000/svg" xmlns:xlink="http://www.w3.org/1999/xlink" viewBox="0 0 1080 1080"><defs><style>.cls-1{fill:url(#linear-gradient);}.cls-2{fill:#d501db;}.cls-3{fill:#fcfbfc;}.cls-4{fill:url(#linear-gradient-2);}.cls-5{fill:aqua;}.cls-6{fill:#00c0f4;}.cls-7{fill:#fff515;}</style><linearGradient id="linear-gradient" x1="27.17" y1="539.5" x2="1052.17" y2="539.5" gradientTransform="translate(539.55 -223.59) rotate(45)" gradientUnits="userSpaceOnUse"><stop offset="0" stop-color="#007785"/><stop offset="1" stop-color="#0071bc"/></linearGradient><linearGradient id="linear-gradient-2" x1="118.08" y1="751.2" x2="553.78" y2="751.2" gradientTransform="matrix(1, 0, 0, 1, 0, 0)" xlink:href="#linear-gradient"/></defs><circle class="cls-1" cx="539.67" cy="539.5" r="512.5" transform="translate(-223.42 539.62) rotate(-45)"/><circle class="cls-2" cx="539.67" cy="539.5" r="458.25" transform="translate(-223.42 539.62) rotate(-45)"/><path class="cls-3" d="M251.54,720.07c0-89.58.23-178.83-.24-268.06-.07-13.22,3.21-22.89,13.06-32.32C296,389.38,326.6,358,357.59,327c19.84-19.84,39.84-39.54,59.39-59.67a21.64,21.64,0,0,1,16.83-7.16q184.21.14,368.43-.13c9.2,0,11.32,3.25,11.31,11.94q-.39,184.21.05,368.44c0,12.17-8,16.92-15,23.79-27.66,27.2-55,54.76-82.41,82.19q-34.38,34.36-68.72,68.78c-4.31,4.34-8.5,7.51-15.26,7.5q-134.91-.28-269.81-.15c-2.6,0-5.19-.66-9.2-1.19,15.11-17.94,31.77-32.2,46.71-48.08,22.61-24,47.59-45.66,69.16-70.81,11.9-13.87,26.65-24.73,48.19-21.27,14.69,2.37,30.19-.8,45.09.8,14.69,1.57,24.72-4.64,34.16-14.14,22.85-23,45.62-46,68.79-68.7,5.4-5.29,7.34-10.83,7.32-18.13-.2-55.16-.37-110.32.07-165.48.08-10.87-2.46-14.64-14.23-14.5-55.23.67-110.48.44-165.72.06-8-.05-13.28,2.31-18.81,8q-36.71,37.77-74.48,74.48c-5.84,5.67-8,11.41-7.9,19.2.29,23.73-.06,47.48.2,71.22.06,5.9-1.56,10.25-5.81,14.48q-64,63.76-127.75,127.85C256.26,718.22,254.33,720.13,251.54,720.07Z"/><circle class="cls-4" cx="335.93" cy="751.2" r="217.85"/><path class="cls-5" d="M200.85,746.32c0-83.76,72.26-151.66,161.41-151.66a168.93,168.93,0,0,1,75.4,17.56,178.31,178.31,0,0,0-94.61-26.8c-94.57,0-171.23,72-171.23,160.9s76.66,160.9,171.23,160.9a178.31,178.31,0,0,0,94.61-26.8A168.94,168.94,0,0,1,362.26,898C273.11,898,200.85,830.09,200.85,746.32Z"/><path class="cls-6" d="M304,666.47q-2.39.6-4.76,1.27a9.35,9.35,0,0,1-2.45.44,5,5,0,0,1-2-.37,5.46,5.46,0,0,1-2.17-1.59,8.19,8.19,0,0,1-1.48-2.81c-.73-2.24-.75-4.08,0-5.51s2.22-2.47,4.51-3.12q2.54-.72,5.07-1.36l.66,2.61q-2.48.63-4.93,1.32a4.25,4.25,0,0,0-1.35.61,2.42,2.42,0,0,0-.71,1,5.82,5.82,0,0,0,.28,3.49,4.59,4.59,0,0,0,1.47,2.54,3,3,0,0,0,2.49.1c1.57-.44,3.14-.86,4.72-1.26Z"/><path class="cls-6" d="M316.91,663.76c-1.05.18-2.11.37-3.16.57q-.51-2.67-1-5.34c-1.56.29-3.1.61-4.65,1q.59,2.65,1.16,5.31c-1,.23-2.09.47-3.13.72q-1.58-6.56-3.13-13.1c1.12-.27,2.25-.53,3.38-.77q.57,2.56,1.13,5.15c1.57-.34,3.15-.66,4.72-1l-1-5.19c1.14-.22,2.28-.42,3.42-.62Q315.77,657.13,316.91,663.76Z"/><path class="cls-6" d="M332.43,661.84c-1.19.09-2.38.2-3.58.31-.5-1-1-2-1.51-2.95q-2.71.28-5.41.66c-.25,1.07-.49,2.14-.73,3.22-1.14.16-2.28.34-3.41.53q1.72-7.11,3.92-14.19c1.16-.15,2.32-.29,3.49-.42Q329,655.35,332.43,661.84Zm-6.51-5.29c-.71-1.29-1.43-2.59-2.17-3.87-.38,1.42-.74,2.84-1.1,4.27C323.74,656.81,324.83,656.67,325.92,656.55Z"/><path class="cls-6" d="M348.47,661.38l-3.14,0c.06-3,.13-5.89.2-8.84q-1.54,4.43-2.94,8.86c-1.08,0-2.15,0-3.23.08q-1.67-4.43-3.49-8.81c.23,3,.47,6,.69,8.93l-3.23.2q-.48-6.71-.95-13.43c1.58-.11,3.17-.2,4.76-.27q1.92,4.63,3.67,9.32,1.49-4.75,3.14-9.5c1.59,0,3.18,0,4.77,0Q348.6,654.65,348.47,661.38Z"/><path class="cls-6" d="M364.25,653.36a4.91,4.91,0,0,1-.63,2,3.62,3.62,0,0,1-1.37,1.33,4.54,4.54,0,0,1-1.69.55c-.35,0-.73,0-1.14.05s-.93,0-1.52-.06c-1.06-.08-2.12-.14-3.18-.2l-.24,4.54c-1.07-.06-2.13-.11-3.2-.15l.48-13.45q3.33.11,6.66.35a15.57,15.57,0,0,1,2.6.37c.38.1.69.2.93.29a4.09,4.09,0,0,1,.66.38,4.17,4.17,0,0,1,1.36,1.72A4.5,4.5,0,0,1,364.25,653.36Zm-3.67-.35a1.5,1.5,0,0,0-.42-1.33,3.73,3.73,0,0,0-2-.54c-1-.08-2.08-.14-3.12-.2-.07,1.12-.13,2.23-.19,3.35l3.24.2a5.25,5.25,0,0,0,1.06,0,1.58,1.58,0,0,0,.76-.27A1.48,1.48,0,0,0,360.58,653Z"/><path class="cls-6" d="M368.64,663c-1.1-.16-2.21-.3-3.31-.43l1.59-13.37c1.2.14,2.39.3,3.58.46Z"/><path class="cls-6" d="M385.45,659.26a7.36,7.36,0,0,1-2.86,4.74,7.08,7.08,0,0,1-5.37.67c-2.28-.44-3.86-1.29-4.76-2.62s-1.18-3.18-.82-5.59,1.18-3.88,2.54-4.82,3.25-1.16,5.69-.69,4.13,1.43,5,2.8S386,657,385.45,659.26Zm-3.52-.79a5.16,5.16,0,0,0-.15-3.38,3.89,3.89,0,0,0-5.19-1,3.6,3.6,0,0,0-.87,1.19,6.76,6.76,0,0,0-.53,1.8,5.46,5.46,0,0,0,.24,3.44,3,3,0,0,0,2.31,1.5,3.13,3.13,0,0,0,2.69-.53A5.16,5.16,0,0,0,381.93,658.47Z"/><path class="cls-6" d="M397.44,669.6c-1.14-.37-2.29-.73-3.43-1.07q-1.22-5.16-2.73-10.32c-.75,3-1.51,5.93-2.26,8.9-1.06-.29-2.12-.56-3.18-.82l3.24-13.07c1.35.33,2.7.68,4,1q1.45,4.89,2.66,9.79c.8-2.78,1.61-5.55,2.41-8.33,1.14.34,2.27.7,3.41,1.07Q399.52,663.19,397.44,669.6Z"/><path class="cls-7" d="M441.74,679.4c-.05-3.93-.08-7.87-.09-11.8A19.27,19.27,0,0,0,434.14,652a61.11,61.11,0,0,0-12.3-7.47A150.83,150.83,0,0,0,395.08,635a195.93,195.93,0,0,0-29.92-5.6c-6.33-.65-12.66-1-19-1.08-5.76,0-11.51.35-17.24.87-5.07.46-10.09,1.16-15.1,2-4.56.79-9.09,1.81-13.59,2.94s-9.19,2.47-13.69,4a123,123,0,0,0-15.85,6.45c-5,2.51-9.94,5.24-13.9,9.3a18,18,0,0,0-5.36,12.73c0,3.57,0,7.15-.09,10.72-.11,5.16-.13,10.32-.25,15.49-.17,6.56,0,13.12,0,19.68,0,10.78,0,21.55.19,32.33.12,7.47.09,15,0,22.42a94,94,0,0,0,3.57,26.47,82.43,82.43,0,0,0,15.95,30.87,97.81,97.81,0,0,0,18.63,17,223,223,0,0,0,21.27,13.13c6.41,3.58,12.89,7,19.31,10.6,5.35,3,10.62,6.07,15.77,9.37a1.18,1.18,0,0,0,1.51,0c.86-.63,1.76-1.21,2.68-1.76,2.7-1.59,5.43-3.12,8.12-4.73,5.35-3.21,10.83-6.16,16.31-9.12,7.65-4.14,15.26-8.36,22.59-13.06a123.1,123.1,0,0,0,16.8-12.71,86.39,86.39,0,0,0,9.87-10.48A78.86,78.86,0,0,0,437.94,794c1.77-6.73,3.52-13.47,3.67-20.46.21-9.54.26-19.08.26-28.62C441.86,723.07,442,701.23,441.74,679.4ZM325.22,852m-27.39-15.81a142.81,142.81,0,0,1-15.36-12.53,71.18,71.18,0,0,1-6.66-7.56,35.44,35.44,0,0,1-3.13-4.54l-.49-.88a.94.94,0,0,1,.73.63,112,112,0,0,0,20,16.84c7.9,5.29,16.2,9.87,24.5,14.46,8.93,4.94,17.95,9.72,26.61,15.12,2.58,1.62,2.58,1.59,5.17-.05,6.93-4.42,14.14-8.35,21.33-12.32,9.14-5.05,18.42-9.87,27.13-15.66a108.21,108.21,0,0,0,13.71-10.09c3-2.77,6.25-5.3,8.81-8.53h0a1.15,1.15,0,0,1,.63-.67c.08.41-.18.65-.4.9a93.19,93.19,0,0,1-6.88,9.07A98.72,98.72,0,0,1,400.9,832a86,86,0,0,1-8.13,5.59c-6.2,4-12.65,7.57-19.06,11.22-2,1.17-4.15,2.32-6.22,3.42-1.72.9-3.37,2-5.12,2.84-1.43.7-2.85,1.6-4.27,2.35s-2.57,1.55-3.86,2.26a29.29,29.29,0,0,0-5,2.82c-2,1.66-3.53,1.8-5.51,0Zm16.39-139.41c-1.5-2.27-2.67-4.75-4.5-6.8a.93.93,0,0,1,0-1.46c.77-.74,1.5-1.54,2.32-2.22,1.35-1.14,2.06-1,2.9.55a30.12,30.12,0,0,1,2.62,7.37,18,18,0,0,1-.39,8.39A36,36,0,0,0,314.22,696.74Zm118.35,53.9a93.74,93.74,0,0,1-3.7,25.72A88.86,88.86,0,0,1,420.69,795c-5.11,9.15-12.64,15.91-20.76,22.16-4.19,3.23-8.74,5.93-13.21,8.75-.77.48-1,.22-.91-.56a4.86,4.86,0,0,0-.63-2.75c-1.34-2.47-2.39-5.09-3.66-7.6a72.21,72.21,0,0,0-4.31-6.71,1.16,1.16,0,0,0-.39-.43c-2.07-1-3.76-2.68-5.74-3.8-2.86-1.62-5.92-2.87-8.84-4.39a10,10,0,0,1-3.28-2.9,1.87,1.87,0,0,1-.26-1.59,33.12,33.12,0,0,1,1.8-6.51c.63-1.53.57-3.32,1.11-4.94q1.25-3.72,2.48-7.44a1.59,1.59,0,0,1,.76-1c1.8-.87,1.94-2.57,2.13-4.22a18.8,18.8,0,0,0,0-2.49,1.08,1.08,0,0,0-.27-.89c-1.08-.83-.78-1.84-.48-2.92a33.1,33.1,0,0,0,1.16-6.54,2.37,2.37,0,0,1,1.09-2.1c1.48-.93,1.91-2.46,2.17-4.06.11-.66-.37-1-.85-1.12a17.12,17.12,0,0,1-5.78-3.7,17,17,0,0,0-8-3.89c1.13-.61,2.23,0,3.28-.46a8.34,8.34,0,0,0-3.39-1.61c-3.3-.88-6.62-1.3-9.9.15-.18.07-.36.24-.54.08s0-.45,0-.66.51-.78.14-1.08-.72.16-1.06.32a14.67,14.67,0,0,0-7.37,7.47,1.3,1.3,0,0,1-.23.26c-.41-1.06-.23-2.18-.52-3.57a14.28,14.28,0,0,0-.7,4.58,2.78,2.78,0,0,1-1.57,2.54,4.05,4.05,0,0,0-2.14,3.38l2-1.12c.29.33.09.62,0,.88-1.32,3.46-.92,7-.23,10.45a2.76,2.76,0,0,1-.09,1.73,5.61,5.61,0,0,0,.23,4.83,3.27,3.27,0,0,0,2.63,2.15,1.81,1.81,0,0,1,1.69,1.7c.54,2.77.7,5.58,1.14,8.36.37,2.29-1,4.1-2.73,5.52-2.15,1.81-4.47,2.36-7.11.84A44.87,44.87,0,0,0,325,788c-1.32-.58-2-1.89-3-2.78-3.21-2.75-2.42-6.27-1.86-9.75.17-1.08.19-2.18.27-3.25a52.44,52.44,0,0,0,.37-6c-.1-2.57.39-5.14.17-7.72-.25-3.1-.21-6.2-.16-9.3,0-1.54.62-3.05.18-4.6a5,5,0,0,1-.26-2.11c.06-.35,0-.82.23-1,1.22-1.21,1.65-2.91,2.63-4.19,1.2,2.39.95,4.93,1,7.45,0,1-.07,2.16,1,2.59s1.95-.37,2.75-1a40.47,40.47,0,0,0,4.63-4.43c1.08-1.22,2.45-2.29,3.17-3.91a7.9,7.9,0,0,1,2.05-2.3c1.1-1,1.63-2.4,2.93-3.18a9.5,9.5,0,0,0,1.83-1.86c.21-.22.55-.43.4-.79s-.55-.22-.84-.22c-2.47-.06-4.91.39-7.38.31a3.58,3.58,0,0,1-3.44-1.88,64.07,64.07,0,0,0-6.86-9.85c-1.87-2.25-3.46-4.74-5.23-7.09a3,3,0,0,1-.19-3.47,20.08,20.08,0,0,0,2.18-7c.15-1.13-.24-2.33-.17-3.48a23.63,23.63,0,0,0-1.44-8.26,24.72,24.72,0,0,0-4.71-8.22,2.23,2.23,0,0,0-1-.68h-.74c-1.77,1-2.86,2.74-4.35,4-.06.05-.1.12-.16.18-.75.7-1.24,1.92-2.19,2.1-1.1.2-1.53-1.18-2.26-1.85s-1.19-.07-1.62.37c-3.8,3.9-7.58,7.81-11.38,11.7q-6.19,6.36-12.42,12.7c-1.47,1.51-1.45,1.77.12,3.08,1.28,1.07,1.28,1.09.08,2.33L275,719.09c-1.48,1.54-1.44,2.31.26,3.56A25.58,25.58,0,0,0,291.94,728c2.74-.12,5.59-.38,8-1.69a11.81,11.81,0,0,1,6-1.2,11.32,11.32,0,0,0,5.61-1.35c.53-.31,1.11-.71,1.78-.3s.24,1.06.24,1.61a85.87,85.87,0,0,1-1,12c-.27,1.81-.44,3.68-1.87,5.14-.61.62-.52,1.64-.56,2.5-.14,3-1.23,5.73-2.22,8.48-1.41,3.93-2.33,8-3.49,12a26.64,26.64,0,0,0-1.21,10.18,5.64,5.64,0,0,1-.44,2.92,2.51,2.51,0,0,0-.25,1.51c.47,2.41.15,4.88.67,7.3a16.36,16.36,0,0,0,1.42,4.39c1.66,3.17,2.45,6.61,3.48,10,.94,3.07,1.95,6.12,2.76,9.22,1.26,4.8,1.33,9.73,1.27,14.65,0,1.26,0,2.53,0,4-1.5-.82-2.87-1.52-4.18-2.31a145.43,145.43,0,0,1-20.84-14.43c-5.44-4.7-10.51-9.8-14.11-16a82.58,82.58,0,0,1-5.56-10.74c-1-2.54-2-5.09-2.79-7.68a78.94,78.94,0,0,1-4-24.53c0-6.24-.06-12.48-.12-18.72,0-3-.39-6-.14-9,.46-5.39.08-10.79.48-16.18.1-1.3.12-2.62.14-3.92a10,10,0,0,1,4.54-8.2A77.7,77.7,0,0,1,283,688.31,158.3,158.3,0,0,1,303,682a76.19,76.19,0,0,1,10.48-2.19h0a1,1,0,0,1,.73-.21h0c3-.56,6-1.1,9-1.44,3.39-.38,6.77-.78,10.17-1s6.66-.48,10-.52c5-.07,9.93,0,14.88.42a186.14,186.14,0,0,1,21.8,3,169.32,169.32,0,0,1,35.89,11c4.31,1.92,8.7,3.88,12.18,7.14,2.29,2.15,4.15,4.71,4.19,8.21Q432.63,728.53,432.57,750.64ZM296.3,723.69c-5.51,1.79-10.41.26-15.25-1.78a2.61,2.61,0,0,1-1.27-1c-.44-.69-.45-1.08.24-1.91l1.29-1.52c.89-1,1.84-1.5,2.8-.74a50.78,50.78,0,0,0,11.62,6.71C295.87,723.46,296,723.54,296.3,723.69Zm68.63-85c2.38.32,4.76.63,7.13,1,3.37.55,6.71,1.25,10.07,1.84,4.49.79,8.85,2.09,13.25,3.23,3.88,1,7.61,2.45,11.42,3.65,3.32,1,6.49,2.5,9.69,3.84a77.41,77.41,0,0,1,8.24,4.48,19.7,19.7,0,0,1,5.95,5.15c1.58,2,1.45,4.38,1.55,6.69.09,1.9-.07,3.82.1,5.72.33,3.8.16,7.61.29,11.42a34,34,0,0,1-.13,3.78,10.37,10.37,0,0,1-3.2-1.66c-10.92-6.52-22.84-10.42-35-13.74a193,193,0,0,0-23-4.67,156.88,156.88,0,0,0-18.48-1.7c-5.79-.13-11.58-.11-17.37.25a196.32,196.32,0,0,0-24.75,3.15,181.94,181.94,0,0,0-26.49,7.12,97.26,97.26,0,0,0-21.85,10.38c-.28.19-.54.4-.81.6-.61.46-.85.11-1-.53a5,5,0,0,1,0-.95v-9.43c0-3.29,0-7.89.36-12.5a8.86,8.86,0,0,1,3.16-6c1.09-1,2.37-1.83,3.5-2.75a21.46,21.46,0,0,1,4-2.71S319.13,632.45,364.93,638.66ZM302,643.3"/></svg>