<svg id="Layer_1" data-name="Layer 1" xmlns="http://www.w3.org/2000/svg" xmlns:xlink="http://www.w3.org/1999/xlink" viewBox="0 0 440 358"><defs><style>.cls-1{fill:#013238;}.cls-2{fill:url(#linear-gradient);}.cls-3{fill:url(#linear-gradient-2);}.cls-4{opacity:0.2;fill:url(#linear-gradient-3);}.cls-5{fill:#f0b90b;}.cls-6{fill:#fff;}</style><linearGradient id="linear-gradient" x1="217.23" y1="96.65" x2="217.23" y2="262.8" gradientUnits="userSpaceOnUse"><stop offset="0" stop-color="#f9df7b"/><stop offset="0.1" stop-color="#e1bc55"/><stop offset="0.2" stop-color="#cea137"/><stop offset="0.3" stop-color="#c08e21"/><stop offset="0.4" stop-color="#b88214"/><stop offset="0.49" stop-color="#b57e10"/><stop offset="0.7" stop-color="#b88214"/><stop offset="0.91" stop-color="#bf8d21"/><stop offset="1" stop-color="#c49328"/></linearGradient><linearGradient id="linear-gradient-2" x1="95.77" y1="96.66" x2="95.77" y2="262.82" xlink:href="#linear-gradient"/><linearGradient id="linear-gradient-3" x1="94.89" y1="155.8" x2="218.15" y2="155.8" gradientUnits="userSpaceOnUse"><stop offset="0" stop-color="#f9df7b"/><stop offset="0.1" stop-color="#e1bc55"/><stop offset="0.2" stop-color="#cea137"/><stop offset="0.3" stop-color="#c08e21"/><stop offset="0.4" stop-color="#b88214"/><stop offset="0.49" stop-color="#b57e10"/><stop offset="0.49" stop-color="#b88214"/><stop offset="0.49" stop-color="#c08d21"/><stop offset="0.5" stop-color="#cda036"/><stop offset="0.5" stop-color="#dfbb53"/><stop offset="0.5" stop-color="#f7dc78"/><stop offset="0.5" stop-color="#f9df7b"/><stop offset="1" stop-color="#c49328"/></linearGradient></defs><circle class="cls-1" cx="155.65" cy="155.38" r="143.62"/><path class="cls-2" d="M263,132.77c-.11-1.24-.67-1.8-2.14-2.33-24.4-8.77-48.31-18.25-71.41-28.84l-10.79-4.95-7.39,32.7.42.08,7.59-16.69c1,.38,1.59.59,2.17.86,19.12,8.89,38.93,16.83,59.23,24.07,3.29,1.17,4.2,2.6,4.26,5.08a90.28,90.28,0,0,1-5.8,33.83c-6.27,16.93-16.68,32.24-31.75,45.7-4.08,3.64-8.47,7.09-12.93,10.46-4.05,3.06-8.4,5.91-13.06,9.16-1.58-12.35-3.06-23.87-4.54-35.39l-.76,0c.34,18.78,0,37.53-4.83,56.25a7.33,7.33,0,0,0,1.09-.32c19.91-10.13,37.48-22.17,51.8-36.69,20.51-20.78,33.18-44,37.37-69.74C262.75,148.3,263.67,140.58,263,132.77Z"/><path class="cls-3" d="M136.92,205.05l-.78,0-5,36c-.65-.38-1.44-.77-2.13-1.24-5.23-3.62-10.64-7.1-15.6-10.91A124,124,0,0,1,87,201.54c-9.27-13.27-15.48-27.31-17.64-42.23-.9-6.21-.81-12.5-1-18.75,0-.68,1-1.67,1.84-2,16.55-6.62,33.17-13.14,49.72-19.76,4.56-1.83,8.92-3.94,13.74-6.08,2.45,5.35,4.79,10.48,7.14,15.6l.67-.12-7.2-31.52c-6,2.73-11.25,5.21-16.61,7.61-21.37,9.53-43.33,18.22-65.76,26.24-1.44.51-1.95,1.12-1.9,2.24.29,6.18.17,12.39.88,18.54a110.61,110.61,0,0,0,9.45,34,142.25,142.25,0,0,0,30.41,42.39,193.33,193.33,0,0,0,36.77,27.6c4.41,2.61,9,5,13.53,7.56C137.17,243.55,135.08,224.39,136.92,205.05Z"/><path class="cls-4" d="M218.12,82.63c-.54-3.85-3.55-6.56-8-6.61l-6.67,0h-.16c-7.4,0-14.8.06-22.21.06-4.49,0-9-.08-13.46-.06-1.5,0-2.08-.55-2.16-1.54-.14-1.67-.15-3.34-.32-5-1.07-10-2.2-20.09-3.21-30.14A2.43,2.43,0,0,1,163,37.48c4.3-3.15,4.68-7.82.8-10.92a12.29,12.29,0,0,0-14.42-.23c-4.12,3.05-3.88,7.82.4,11.09A2.8,2.8,0,0,1,151,39.61c-1.12,11.51-2.39,23-3.51,34.51-.14,1.5-.87,2-2.72,2-5.1,0-10.2,0-15.3,0-8.45,0-16.9-.15-25.35-.08a13.32,13.32,0,0,0-5.19,1.1c-3.32,1.54-4.65,4.63-3.7,7.57.87,2.71,4.37,4.9,8.22,5.18s7.48-1.23,9-4a3.37,3.37,0,0,1,3.9-1.9c4.77.77,9.55,1.52,14.2,2.6,5,1.14,8.09,3.47,8.82,7.77,2,12.19,4.77,24.3,6.75,36.49,2.2,13.51,1.66,27-.24,40.58-1.86,13.34-3.71,26.71-4.35,40.1C141,222,142,232.61,143,243.11a118.88,118.88,0,0,0,7.63,31.25c1.64,4.2,3.54,8.34,5.32,12.51h0l.35.61.45-.67h0l0,0,.07-.11h0a111.64,111.64,0,0,0,10.58-29.74c1.24-6,1.87-12,2.59-18.07a158.43,158.43,0,0,0,1.53-16.93c.09-7.81-.22-15.63-.82-23.43-.54-7-1.7-14-2.57-20.94s-2.31-13.81-2.44-20.73a172.76,172.76,0,0,1,1.32-26.8c1.68-12.07,4.43-24,6.8-36.07.55-2.8,1.78-5.06,5.76-6.5A61.69,61.69,0,0,1,196,84.15c2.3-.18,3.63-.07,4.67,1.8,1.76,3.17,6.53,4.58,10.85,3.59C215.54,88.61,218.52,85.51,218.12,82.63Z"/><path class="cls-5" d="M325.87,145.1a103,103,0,1,1-103,103,103,103,0,0,1,103-103"/><polygon class="cls-6" points="299.23 236.99 314.82 221.46 318.1 218.17 325.89 210.38 352.42 236.99 367.86 221.46 325.89 179.42 283.79 221.46 299.23 236.99"/><rect class="cls-6" x="314.95" y="237.06" width="21.93" height="21.93" transform="translate(-79.92 303.1) rotate(-45)"/><polygon class="cls-6" points="352.42 259.14 325.89 285.68 316.57 276.36 314.85 274.65 299.23 259.14 283.79 274.59 325.89 316.62 367.86 274.59 352.42 259.14"/><rect class="cls-6" x="261.78" y="237.1" width="21.93" height="21.93" transform="translate(-95.53 265.51) rotate(-45)"/><rect class="cls-6" x="368.04" y="237.1" width="21.93" height="21.93" transform="translate(-64.4 340.65) rotate(-45)"/></svg>