<svg id="Layer_1" data-name="Layer 1" xmlns="http://www.w3.org/2000/svg" xmlns:xlink="http://www.w3.org/1999/xlink" viewBox="0 0 1800 1080"><defs><style>.cls-1{fill:#627eea;}.cls-2,.cls-3,.cls-4{fill:#fff;}.cls-2{fill-opacity:0.6;}.cls-4{fill-opacity:0.2;}.cls-5{fill:#013238;}.cls-6{opacity:0.2;}.cls-7{fill:url(#linear-gradient);}.cls-8{fill:url(#linear-gradient-2);}.cls-9{fill:url(#linear-gradient-3);}</style><linearGradient id="linear-gradient" x1="811.71" y1="337.48" x2="811.71" y2="909.69" gradientUnits="userSpaceOnUse"><stop offset="0" stop-color="#f9df7b"/><stop offset="0.1" stop-color="#e1bc55"/><stop offset="0.2" stop-color="#cea137"/><stop offset="0.3" stop-color="#c08e21"/><stop offset="0.4" stop-color="#b88214"/><stop offset="0.49" stop-color="#b57e10"/><stop offset="0.7" stop-color="#b88214"/><stop offset="0.91" stop-color="#bf8d21"/><stop offset="1" stop-color="#c49328"/></linearGradient><linearGradient id="linear-gradient-2" x1="393.44" y1="337.53" x2="393.44" y2="909.76" xlink:href="#linear-gradient"/><linearGradient id="linear-gradient-3" x1="397.59" y1="541.32" x2="822.09" y2="541.04" gradientUnits="userSpaceOnUse"><stop offset="0" stop-color="#f9df7b"/><stop offset="0.1" stop-color="#e1bc55"/><stop offset="0.2" stop-color="#cea137"/><stop offset="0.3" stop-color="#c08e21"/><stop offset="0.4" stop-color="#b88214"/><stop offset="0.49" stop-color="#b57e10"/><stop offset="0.49" stop-color="#b88214"/><stop offset="0.49" stop-color="#c08d21"/><stop offset="0.5" stop-color="#cda036"/><stop offset="0.5" stop-color="#dfbb53"/><stop offset="0.5" stop-color="#f7dc78"/><stop offset="0.5" stop-color="#f9df7b"/><stop offset="1" stop-color="#c49328"/></linearGradient></defs><circle class="cls-1" cx="1210.61" cy="540.5" r="494.5" transform="translate(-27.61 1014.34) rotate(-45)"/><path class="cls-2" d="M1226,169.62V443.76L1457.7,547.3Z"/><path class="cls-3" d="M1226,169.62,994.27,547.3,1226,443.76Z"/><path class="cls-2" d="M1226,725V911.22l231.86-320.78Z"/><path class="cls-3" d="M1226,911.22V724.92L994.27,590.44Z"/><path class="cls-4" d="M1226,681.83,1457.7,547.3,1226,443.82Z"/><path class="cls-2" d="M994.27,547.3,1226,681.83v-238Z"/><circle class="cls-5" cx="605.66" cy="541.35" r="494.61"/><g class="cls-6"><path class="cls-7" d="M969.25,461.89c-.38-4.29-2.32-6.2-7.38-8C877.83,423.65,795.51,391,716,354.52l-37.17-17c-8.64,38.29-17,75.46-25.43,112.63l1.45.26c8.61-19,17.23-37.92,26.12-57.48,3.33,1.31,5.49,2,7.49,3,65.83,30.62,134.07,58,204,82.92,11.31,4,14.46,9,14.67,17.47,1,39.61-5.86,78.4-20,116.54-21.58,58.28-57.42,111-109.34,157.37-14,12.53-29.15,24.41-44.51,36-14,10.55-28.93,20.35-45,31.54-5.45-42.54-10.53-82.21-15.62-121.88L670,716c1.16,64.69-.14,129.27-16.64,193.73a31.27,31.27,0,0,0,3.76-1.08c68.54-34.92,129-76.38,178.39-126.39,70.61-71.56,114.26-151.41,128.67-240.14C968.5,515.37,971.65,488.79,969.25,461.89Z"/><path class="cls-8" d="M305.51,481.76c57-22.81,114.24-45.25,171.23-68.06,15.7-6.29,30.72-13.55,47.33-20.94,8.43,18.44,16.49,36.09,24.56,53.73l2.32-.41c-8.19-35.87-16.38-71.74-24.78-108.55-20.53,9.41-38.76,18-57.23,26.2-73.57,32.83-149.21,62.75-226.47,90.37-4.95,1.77-6.7,3.88-6.52,7.73,1,21.29.59,42.66,3,63.85a381.83,381.83,0,0,0,32.53,117q36.58,79.41,104.76,146c36.74,35.84,79.41,67.14,126.61,95.07,15.2,9,31,17.36,46.6,26C536,843.39,528.81,777.42,535.15,710.82l-2.69-.13c-5.69,41.29-11.37,82.57-17.08,124.1-2.23-1.29-5-2.64-7.33-4.29-18-12.45-36.66-24.42-53.75-37.55-36.45-28-66.74-59.53-91-94.21C331.4,653,310,604.66,302.57,553.28c-3.09-21.37-2.78-43-3.39-64.58C299.12,486.37,302.51,483,305.51,481.76Z"/></g><path class="cls-9" d="M820.77,289.21c-1.83-13.25-12.21-22.59-27.41-22.76q-11.49-.12-23-.14h-.53c-25.49-.05-51,.19-76.48.2-15.47,0-30.93-.27-46.39-.19-5.16,0-7.16-1.89-7.43-5.32-.47-5.73-.49-11.49-1.1-17.22-3.69-34.6-7.56-69.19-11.06-103.8-.2-2,1.66-4.77,3.71-6.28,14.8-10.84,16.12-26.92,2.73-37.6-13.69-10.93-35.53-11.27-49.65-.79s-13.37,26.93,1.39,38.19c2.34,1.79,4.16,5.08,3.92,7.54-3.87,39.64-8.24,79.24-12.09,118.88-.5,5.14-3,6.79-9.35,6.74-17.57-.13-35.15,0-52.72,0-29.09-.09-58.19-.49-87.28-.25a45.57,45.57,0,0,0-17.89,3.78c-11.43,5.3-16,16-12.74,26.07,3,9.31,15,16.89,28.32,17.82,12.88.9,25.76-4.22,31-13.61,2.85-5.13,6.81-7.63,13.46-6.55,16.4,2.66,32.88,5.24,48.9,8.94,17.07,3.94,27.86,11.94,30.35,26.78,7.05,41.95,16.46,83.68,23.27,125.64,7.56,46.53,5.69,93.12-.83,139.77-6.42,45.92-12.8,92-15,138.09-1.71,36.17,1.61,72.59,5.31,108.75a409.76,409.76,0,0,0,26.28,107.64c5.65,14.47,12.2,28.73,18.34,43.09h0l1.19,2.1,1.55-2.33h0l.08-.16.25-.37h-.06a385.82,385.82,0,0,0,36.43-102.42c4.26-20.59,6.44-41.45,8.91-62.23,2.3-19.41,5.06-38.88,5.27-58.33.3-26.89-.76-53.83-2.82-80.68-1.85-24.09-5.85-48.08-8.86-72.11-3-23.8-8-47.57-8.39-71.4-.56-30.75.29-61.73,4.55-92.28,5.79-41.57,15.26-82.85,23.41-124.22,1.9-9.65,6.12-17.44,19.84-22.41,18.13-6.55,36.61-9.74,56.2-11.3,7.91-.63,12.5-.24,16.07,6.19,6.06,10.92,22.5,15.76,37.39,12.36C811.89,309.82,822.15,299.14,820.77,289.21Z"/></svg>