<svg width="290" height="290" viewBox="0 0 290 290" fill="none" xmlns="http://www.w3.org/2000/svg">
<g clip-path="url(#clip0_101_2)">
<g clip-path="url(#clip1_101_2)">
<path d="M144.73 289.46C224.935 289.46 289.46 224.935 289.46 144.73C289.46 64.525 224.935 0 144.73 0C64.525 0 0 64.525 0 144.73C0 224.935 64.525 289.46 144.73 289.46Z" fill="#2775CA"/>
<path d="M184.531 167.645C184.531 146.539 171.867 139.303 146.539 136.288C128.448 133.875 124.83 129.051 124.83 120.608C124.83 112.164 130.861 106.738 142.921 106.738C153.776 106.738 159.807 110.357 162.821 119.402C163.425 121.211 165.234 122.417 167.043 122.417H176.691C179.103 122.417 180.912 120.608 180.912 118.197V117.593C178.5 104.326 167.645 94.0745 153.776 92.8689V78.3959C153.776 75.9832 151.966 74.1741 148.952 73.5706H139.906C137.493 73.5706 135.684 75.3797 135.081 78.3959V92.2654C116.99 94.678 105.533 106.738 105.533 121.815C105.533 141.715 117.593 149.554 142.921 152.57C159.807 155.585 165.234 159.203 165.234 168.852C165.234 178.501 156.79 185.134 145.334 185.134C129.653 185.134 124.226 178.5 122.417 169.454C121.815 167.043 120.006 165.836 118.197 165.836H107.944C105.533 165.836 103.724 167.645 103.724 170.058V170.661C106.135 185.736 115.784 196.591 135.684 199.607V214.08C135.684 216.491 137.493 218.301 140.508 218.904H149.554C151.966 218.904 153.776 217.095 154.379 214.08V199.607C172.47 196.591 184.531 183.927 184.531 167.645Z" fill="white"/>
<path d="M113.975 230.964C66.9376 214.08 42.8155 161.616 60.3046 115.18C69.3503 89.8527 89.2506 70.5559 113.975 61.5103C116.388 60.3047 117.593 58.4955 117.593 55.4794V47.0373C117.593 44.6246 116.388 42.8155 113.975 42.2134C113.371 42.2134 112.166 42.2134 111.562 42.8155C54.2737 60.9067 22.9151 121.815 41.0063 179.103C51.8611 212.873 77.7924 238.804 111.562 249.659C113.975 250.865 116.388 249.659 116.99 247.247C117.593 246.645 117.593 246.041 117.593 244.835V236.392C117.593 234.583 115.784 232.172 113.975 230.964ZM177.898 42.8155C175.485 41.6099 173.072 42.8155 172.47 45.2281C171.867 45.8317 171.867 46.4337 171.867 47.6408V56.0829C171.867 58.4955 173.676 60.9067 175.485 62.1138C222.522 78.998 246.645 131.463 229.155 177.898C220.11 203.226 200.209 222.522 175.485 231.568C173.072 232.774 171.867 234.583 171.867 237.599V246.041C171.867 248.454 173.072 250.263 175.485 250.865C176.089 250.865 177.294 250.865 177.898 250.263C235.186 232.172 266.545 171.263 248.454 113.975C237.599 79.6015 211.064 53.6702 177.898 42.8155Z" fill="white"/>
</g>
</g>
<defs>
<clipPath id="clip0_101_2">
<rect width="289.46" height="289.46" fill="white"/>
</clipPath>
<clipPath id="clip1_101_2">
<rect width="289.46" height="289.46" fill="white"/>
</clipPath>
</defs>
</svg>
